<svg width="158" height="110" viewBox="0 0 158 110" fill="none" xmlns="http://www.w3.org/2000/svg">
<g clip-path="url(#clip0_311_2207)">
<rect width="158" height="110" rx="16" fill="#1F1E28"/>
<circle cx="124" cy="34" r="72" fill="url(#paint0_radial_311_2207)" fill-opacity="0.28"/>
<circle cx="123" cy="33" r="59.5" stroke="#95ECEF" stroke-opacity="0.06"/>
<path d="M135.818 20.0767C135.818 23.4375 134.279 26.1981 132.186 28.5987C130.155 30.9993 127.508 33.0998 124.985 35.0803L124.923 35.1403H124.862C123.323 36.4006 121.784 37.6008 120.43 38.8011H127.508C126.893 38.261 126.216 37.7209 125.539 37.1207C125.723 37.0007 125.908 36.8207 126.154 36.6406L126.277 36.5206C126.77 36.1005 127.324 35.6804 127.878 35.2603C129.416 36.5806 130.955 37.9609 132.186 39.4613C134.279 41.8619 135.818 44.6225 135.818 47.9233C135.818 48.7635 135.141 49.3636 134.341 49.3636C133.479 49.3636 132.863 48.7635 132.863 47.9233C132.863 47.8033 132.863 47.6232 132.802 47.4432H115.136C115.136 47.6232 115.136 47.8033 115.136 47.9233C115.136 48.7635 114.459 49.3636 113.659 49.3636C112.797 49.3636 112.182 48.7635 112.182 47.9233C112.182 44.6225 113.659 41.8619 115.752 39.4613C117.414 37.4808 119.506 35.7404 121.599 34C119.506 32.3196 117.414 30.5792 115.752 28.5987C113.659 26.1981 112.182 23.4375 112.182 20.0767C112.182 19.2965 112.797 18.6364 113.659 18.6364C114.459 18.6364 115.136 19.2965 115.136 20.0767C115.136 20.2567 115.136 20.4368 115.136 20.5568H132.802C132.802 20.4368 132.863 20.2567 132.863 20.0767C132.863 19.2965 133.479 18.6364 134.341 18.6364C135.141 18.6364 135.818 19.2965 135.818 20.0767ZM117.66 41.6818C116.86 42.642 116.244 43.6023 115.813 44.5625H132.125C131.694 43.6023 131.078 42.642 130.278 41.6818H117.66ZM115.813 23.4375C116.244 24.4577 116.86 25.418 117.66 26.3182H130.278C131.078 25.418 131.694 24.4577 132.125 23.4375H115.813ZM127.508 29.1989H120.43C121.538 30.2191 122.707 31.1793 124 32.1996C125.231 31.1793 126.4 30.2191 127.508 29.1989Z" fill="#95ECEF"/>
<circle opacity="0.2" cx="123.618" cy="33.6185" r="29.1907" stroke="#95ECEF"/>
<circle opacity="0.1" cx="123" cy="33" r="43.4175" stroke="#95ECEF"/>
<rect width="158" height="110" fill="url(#paint1_linear_311_2207)"/>
<path d="M17.3125 90V79.155H21.04C22.415 79.155 23.4425 79.4 24.1225 79.89C24.8075 80.375 25.15 81.075 25.15 81.99C25.15 82.545 25.0075 83.025 24.7225 83.43C24.4375 83.835 23.935 84.1775 23.215 84.4575C23.655 84.5625 24.0175 84.7075 24.3025 84.8925C24.5925 85.0725 24.8175 85.28 24.9775 85.515C25.1375 85.745 25.25 85.9925 25.315 86.2575C25.38 86.5225 25.4125 86.795 25.4125 87.075C25.4125 88.065 25.0675 88.8 24.3775 89.28C23.6925 89.76 22.63 90 21.19 90H17.3125ZM19.135 88.545H21.2125C21.9825 88.545 22.565 88.4075 22.96 88.1325C23.36 87.8525 23.56 87.45 23.56 86.925C23.56 86.545 23.4625 86.2325 23.2675 85.9875C23.0725 85.7375 22.8075 85.5525 22.4725 85.4325C22.1375 85.3125 21.7625 85.2525 21.3475 85.2525H19.135V88.545ZM19.135 83.775H21.3475C21.6025 83.775 21.85 83.7475 22.09 83.6925C22.33 83.6375 22.5475 83.55 22.7425 83.43C22.9375 83.31 23.0925 83.15 23.2075 82.95C23.3275 82.75 23.3875 82.5075 23.3875 82.2225C23.3875 81.6775 23.18 81.2725 22.765 81.0075C22.355 80.7375 21.8275 80.6025 21.1825 80.6025H19.135V83.775ZM30.1293 90.15C29.3893 90.15 28.7443 89.9925 28.1943 89.6775C27.6443 89.3575 27.2168 88.9 26.9118 88.305C26.6118 87.71 26.4618 86.995 26.4618 86.16C26.4618 85.35 26.6093 84.64 26.9043 84.03C27.1993 83.42 27.6193 82.945 28.1643 82.605C28.7143 82.265 29.3718 82.095 30.1368 82.095C30.8768 82.095 31.5193 82.2575 32.0643 82.5825C32.6093 82.9075 33.0293 83.3725 33.3243 83.9775C33.6243 84.5825 33.7743 85.31 33.7743 86.16C33.7743 86.945 33.6318 87.6375 33.3468 88.2375C33.0668 88.8325 32.6543 89.3 32.1093 89.64C31.5693 89.98 30.9093 90.15 30.1293 90.15ZM30.1368 88.7625C30.5568 88.7625 30.9018 88.6475 31.1718 88.4175C31.4468 88.1875 31.6518 87.8725 31.7868 87.4725C31.9218 87.0725 31.9893 86.6175 31.9893 86.1075C31.9893 85.6325 31.9293 85.195 31.8093 84.795C31.6893 84.395 31.4918 84.075 31.2168 83.835C30.9468 83.59 30.5868 83.4675 30.1368 83.4675C29.7118 83.4675 29.3593 83.58 29.0793 83.805C28.8043 84.025 28.5993 84.335 28.4643 84.735C28.3293 85.13 28.2618 85.5875 28.2618 86.1075C28.2618 86.5775 28.3218 87.015 28.4418 87.42C28.5618 87.82 28.7593 88.145 29.0343 88.395C29.3093 88.64 29.6768 88.7625 30.1368 88.7625ZM37.9236 90.15C36.8986 90.15 36.0936 89.7975 35.5086 89.0925C34.9236 88.3875 34.6311 87.385 34.6311 86.085C34.6311 85.275 34.7486 84.5725 34.9836 83.9775C35.2236 83.3775 35.5761 82.915 36.0411 82.59C36.5061 82.26 37.0786 82.095 37.7586 82.095C38.0786 82.095 38.3686 82.135 38.6286 82.215C38.8936 82.29 39.1286 82.39 39.3336 82.515C39.5386 82.64 39.7111 82.7775 39.8511 82.9275C39.9961 83.0775 40.1086 83.2275 40.1886 83.3775V78.855H42.0261V90H40.6761L40.4736 88.41C40.4086 88.595 40.3161 88.79 40.1961 88.995C40.0811 89.195 39.9236 89.3825 39.7236 89.5575C39.5286 89.7325 39.2836 89.875 38.9886 89.985C38.6936 90.095 38.3386 90.15 37.9236 90.15ZM38.2986 88.8075C38.9536 88.8075 39.4311 88.595 39.7311 88.17C40.0361 87.74 40.1886 87.03 40.1886 86.04C40.1836 85.475 40.1136 85 39.9786 84.615C39.8486 84.23 39.6486 83.94 39.3786 83.745C39.1086 83.55 38.7561 83.4525 38.3211 83.4525C37.7711 83.4525 37.3186 83.655 36.9636 84.06C36.6136 84.465 36.4386 85.125 36.4386 86.04C36.4386 86.95 36.6011 87.64 36.9261 88.11C37.2511 88.575 37.7086 88.8075 38.2986 88.8075ZM44.6942 92.475C44.1942 92.475 43.8467 92.435 43.6517 92.355C43.4567 92.28 43.3592 92.2425 43.3592 92.2425V91.0725L44.1392 91.095C44.4542 91.11 44.7092 91.0925 44.9042 91.0425C45.1042 90.9925 45.2592 90.9225 45.3692 90.8325C45.4792 90.7475 45.5592 90.655 45.6092 90.555C45.6642 90.46 45.7067 90.3775 45.7367 90.3075L45.9392 89.7375L42.9167 82.245H44.7317L46.7942 87.7275L48.8492 82.245H50.6342L47.4392 90.285C47.1992 90.87 46.9392 91.32 46.6592 91.635C46.3842 91.955 46.0817 92.175 45.7517 92.295C45.4267 92.415 45.0742 92.475 44.6942 92.475ZM54.8486 90V79.155H56.6711V83.6325H61.9211V79.155H63.7436V90H61.9211V85.185H56.6711V90H54.8486ZM68.9512 90.15C68.2062 90.15 67.5487 89.9925 66.9787 89.6775C66.4137 89.3575 65.9712 88.9025 65.6512 88.3125C65.3362 87.7225 65.1787 87.02 65.1787 86.205C65.1787 85.41 65.3212 84.705 65.6062 84.09C65.8962 83.47 66.3137 82.9825 66.8587 82.6275C67.4087 82.2725 68.0712 82.095 68.8462 82.095C69.6112 82.095 70.2537 82.2575 70.7737 82.5825C71.2937 82.9075 71.6887 83.3625 71.9587 83.9475C72.2287 84.5275 72.3637 85.2075 72.3637 85.9875V86.5425H67.0012C66.9962 86.9825 67.0662 87.3725 67.2112 87.7125C67.3562 88.0525 67.5712 88.32 67.8562 88.515C68.1412 88.705 68.4937 88.8 68.9137 88.8C69.3437 88.8 69.7162 88.705 70.0312 88.515C70.3512 88.32 70.5637 88.025 70.6687 87.63H72.3337C72.2437 88.17 72.0287 88.6275 71.6887 89.0025C71.3537 89.3775 70.9437 89.6625 70.4587 89.8575C69.9787 90.0525 69.4762 90.15 68.9512 90.15ZM66.9937 85.41H70.6387C70.6387 85.035 70.5712 84.6975 70.4362 84.3975C70.3062 84.0925 70.1087 83.8525 69.8437 83.6775C69.5787 83.4975 69.2437 83.4075 68.8387 83.4075C68.4387 83.4075 68.1012 83.505 67.8262 83.7C67.5512 83.895 67.3437 84.1475 67.2037 84.4575C67.0637 84.7625 66.9937 85.08 66.9937 85.41ZM75.8769 90.15C75.3819 90.15 74.9369 90.06 74.5419 89.88C74.1519 89.695 73.8444 89.4325 73.6194 89.0925C73.3994 88.7475 73.2894 88.33 73.2894 87.84C73.2894 86.985 73.5969 86.34 74.2119 85.905C74.8319 85.47 75.8169 85.2425 77.1669 85.2225L78.3294 85.1925V84.6675C78.3294 84.2575 78.2069 83.9375 77.9619 83.7075C77.7219 83.4725 77.3469 83.3575 76.8369 83.3625C76.4569 83.3675 76.1119 83.4575 75.8019 83.6325C75.4919 83.8025 75.2869 84.09 75.1869 84.495H73.6344C73.6644 83.965 73.8169 83.5225 74.0919 83.1675C74.3719 82.8075 74.7544 82.54 75.2394 82.365C75.7244 82.185 76.2844 82.095 76.9194 82.095C77.6594 82.095 78.2619 82.1925 78.7269 82.3875C79.1919 82.5825 79.5344 82.865 79.7544 83.235C79.9744 83.6 80.0844 84.0425 80.0844 84.5625V90H78.5469L78.3969 88.605C78.1219 89.19 77.7694 89.595 77.3394 89.82C76.9144 90.04 76.4269 90.15 75.8769 90.15ZM76.4694 88.9125C76.6944 88.9125 76.9169 88.8725 77.1369 88.7925C77.3569 88.7075 77.5544 88.595 77.7294 88.455C77.9094 88.31 78.0519 88.15 78.1569 87.975C78.2669 87.8 78.3244 87.6175 78.3294 87.4275V86.205L77.3769 86.22C76.9069 86.225 76.4944 86.275 76.1394 86.37C75.7894 86.465 75.5169 86.6175 75.3219 86.8275C75.1269 87.0325 75.0294 87.3075 75.0294 87.6525C75.0294 88.0475 75.1669 88.3575 75.4419 88.5825C75.7169 88.8025 76.0594 88.9125 76.4694 88.9125ZM83.863 90.1125C83.363 90.1125 82.963 90.05 82.663 89.925C82.363 89.8 82.138 89.6325 81.988 89.4225C81.838 89.2125 81.7405 88.9775 81.6955 88.7175C81.6505 88.4525 81.628 88.1825 81.628 87.9075V78.855H83.413V87.6975C83.413 88.0325 83.4805 88.2925 83.6155 88.4775C83.7555 88.6625 83.9805 88.77 84.2905 88.8L84.6805 88.815V89.9625C84.5455 90.0025 84.408 90.0375 84.268 90.0675C84.128 90.0975 83.993 90.1125 83.863 90.1125ZM85.9455 90V82.245H87.693V90H85.9455ZM85.9155 80.8875V79.1625H87.723V80.8875H85.9155ZM89.4559 90V82.245H91.2409V83.355C91.3609 83.155 91.5234 82.9625 91.7284 82.7775C91.9384 82.5925 92.1959 82.4425 92.5009 82.3275C92.8059 82.2125 93.1634 82.155 93.5734 82.155C94.0534 82.155 94.4984 82.25 94.9084 82.44C95.3234 82.63 95.6559 82.9275 95.9059 83.3325C96.1609 83.7375 96.2884 84.26 96.2884 84.9V90H94.4584V85.1175C94.4584 84.6075 94.3184 84.23 94.0384 83.985C93.7584 83.735 93.4059 83.61 92.9809 83.61C92.6909 83.61 92.4159 83.66 92.1559 83.76C91.8959 83.855 91.6834 84.0025 91.5184 84.2025C91.3584 84.3975 91.2784 84.6425 91.2784 84.9375V90H89.4559ZM101.295 92.565C99.99 92.565 98.9875 92.39 98.2875 92.04C97.5875 91.69 97.2375 91.21 97.2375 90.6C97.2375 90.325 97.305 90.095 97.44 89.91C97.575 89.725 97.735 89.5725 97.92 89.4525C98.105 89.3325 98.275 89.24 98.43 89.175C98.585 89.11 98.685 89.0625 98.73 89.0325C98.645 88.9825 98.5325 88.9175 98.3925 88.8375C98.2525 88.7575 98.125 88.6475 98.01 88.5075C97.9 88.3675 97.845 88.185 97.845 87.96C97.845 87.7 97.9675 87.46 98.2125 87.24C98.4625 87.02 98.835 86.8625 99.33 86.7675C98.845 86.5325 98.4725 86.215 98.2125 85.815C97.9525 85.415 97.8225 85 97.8225 84.57C97.8225 84.06 97.97 83.6225 98.265 83.2575C98.565 82.8925 98.98 82.6125 99.51 82.4175C100.04 82.2225 100.657 82.125 101.362 82.125C101.877 82.125 102.305 82.1825 102.645 82.2975C102.99 82.4125 103.31 82.5675 103.605 82.7625C103.705 82.7225 103.845 82.6675 104.025 82.5975C104.205 82.5225 104.402 82.4425 104.617 82.3575C104.832 82.2675 105.04 82.1825 105.24 82.1025C105.44 82.0175 105.607 81.9475 105.742 81.8925L105.735 83.4L104.392 83.64C104.457 83.785 104.507 83.9425 104.542 84.1125C104.582 84.2825 104.602 84.4325 104.602 84.5625C104.602 85.0125 104.475 85.43 104.22 85.815C103.97 86.195 103.592 86.5 103.087 86.73C102.587 86.96 101.962 87.075 101.212 87.075C101.137 87.075 101.035 87.0725 100.905 87.0675C100.775 87.0625 100.67 87.0575 100.59 87.0525C100.185 87.0675 99.9075 87.115 99.7575 87.195C99.6075 87.275 99.5325 87.3625 99.5325 87.4575C99.5325 87.5925 99.645 87.6825 99.87 87.7275C100.095 87.7725 100.455 87.8125 100.95 87.8475C101.125 87.8575 101.355 87.87 101.64 87.885C101.925 87.9 102.242 87.92 102.592 87.945C103.477 88 104.147 88.2225 104.602 88.6125C105.057 88.9975 105.285 89.4975 105.285 90.1125C105.285 90.8275 104.955 91.415 104.295 91.875C103.635 92.335 102.635 92.565 101.295 92.565ZM101.602 91.4925C102.257 91.4925 102.742 91.4025 103.057 91.2225C103.372 91.0425 103.53 90.7775 103.53 90.4275C103.53 90.1575 103.422 89.9375 103.207 89.7675C102.992 89.5975 102.672 89.4975 102.247 89.4675L100.29 89.3475C100.075 89.3325 99.87 89.3725 99.675 89.4675C99.485 89.5575 99.33 89.685 99.21 89.85C99.09 90.01 99.03 90.1875 99.03 90.3825C99.03 90.7475 99.2375 91.0225 99.6525 91.2075C100.072 91.3975 100.722 91.4925 101.602 91.4925ZM101.272 86.0025C101.747 86.0025 102.132 85.8825 102.427 85.6425C102.722 85.3975 102.87 85.0525 102.87 84.6075C102.87 84.1475 102.722 83.79 102.427 83.535C102.132 83.275 101.747 83.145 101.272 83.145C100.787 83.145 100.395 83.275 100.095 83.535C99.8 83.795 99.6525 84.1525 99.6525 84.6075C99.6525 85.0375 99.795 85.3775 100.08 85.6275C100.365 85.8775 100.762 86.0025 101.272 86.0025Z" fill="white"/>
</g>
<rect x="1" y="1" width="156" height="108" rx="15" stroke="white" stroke-opacity="0.2" stroke-width="2"/>
<defs>
<radialGradient id="paint0_radial_311_2207" cx="0" cy="0" r="1" gradientUnits="userSpaceOnUse" gradientTransform="translate(124 34) rotate(90) scale(72)">
<stop stop-color="#95ECEF"/>
<stop offset="1" stop-color="#95ECEF" stop-opacity="0"/>
</radialGradient>
<linearGradient id="paint1_linear_311_2207" x1="79" y1="55" x2="79" y2="110" gradientUnits="userSpaceOnUse">
<stop stop-opacity="0"/>
<stop offset="1" stop-opacity="0.6"/>
</linearGradient>
<clipPath id="clip0_311_2207">
<rect width="158" height="110" rx="16" fill="white"/>
</clipPath>
</defs>
</svg>
