<svg width="158" height="110" viewBox="0 0 158 110" fill="none" xmlns="http://www.w3.org/2000/svg">
<g clip-path="url(#clip0_311_2209)">
<rect width="158" height="110" rx="16" fill="#1F1E28"/>
<circle cx="124" cy="34" r="72" fill="url(#paint0_radial_311_2209)" fill-opacity="0.28"/>
<circle cx="123" cy="33" r="59.5" stroke="#B59BF8" stroke-opacity="0.06"/>
<path d="M129.106 33.2891L131.109 31.2855L132.984 31.6087C133.178 32.3842 133.307 33.1598 133.307 34C133.307 39.1705 129.106 43.3068 124 43.3068C118.83 43.3068 114.693 39.1705 114.693 34C114.693 28.8942 118.83 24.6932 124 24.6932C124.84 24.6932 125.616 24.8224 126.391 25.0163L126.715 26.8906L124.711 28.8942C124.452 28.8942 124.194 28.8295 124 28.8295C121.092 28.8295 118.83 31.1562 118.83 34C118.83 36.9084 121.092 39.1705 124 39.1705C126.844 39.1705 129.17 36.9084 129.17 34C129.17 33.8061 129.106 33.5476 129.106 33.2891ZM136.215 31.9318L139.576 28.571C140.222 30.2514 140.545 32.1257 140.545 34C140.545 43.1776 133.113 50.5455 124 50.5455C114.822 50.5455 107.455 43.1776 107.455 34C107.455 24.8871 114.822 17.4545 124 17.4545C125.874 17.4545 127.749 17.7777 129.429 18.424L126.068 21.7848C125.357 21.6555 124.646 21.5909 124 21.5909C117.149 21.5909 111.591 27.1491 111.591 34C111.591 40.8509 117.149 46.4091 124 46.4091C130.851 46.4091 136.409 40.8509 136.409 34C136.409 33.2891 136.345 32.6428 136.215 31.9318ZM131.045 29.1527L125.034 35.0987C124.452 35.745 123.483 35.745 122.901 35.0987C122.255 34.517 122.255 33.5476 122.901 32.9013L128.847 26.9553L128.266 23.7237C128.201 23.0774 128.395 22.3665 128.847 21.9141L132.144 18.6179C132.725 18.0362 133.565 18.2301 133.889 18.941L135.375 22.625L139.059 24.1115C139.77 24.4347 139.964 25.2749 139.382 25.8565L136.086 29.1527C135.634 29.6051 134.987 29.799 134.276 29.7344L131.045 29.1527Z" fill="#B59BF8"/>
<circle opacity="0.2" cx="123.618" cy="33.6185" r="29.1907" stroke="#B59BF8"/>
<circle opacity="0.1" cx="123" cy="33" r="43.4175" stroke="#B59BF8"/>
<rect width="158" height="110" fill="url(#paint1_linear_311_2209)"/>
<path d="M17.3125 90V79.155C17.3575 79.155 17.49 79.155 17.71 79.155C17.93 79.155 18.19 79.155 18.49 79.155C18.795 79.155 19.1025 79.1575 19.4125 79.1625C19.7275 79.1625 20 79.165 20.23 79.17C21.55 79.195 22.6225 79.4225 23.4475 79.8525C24.2775 80.2775 24.885 80.885 25.27 81.675C25.66 82.46 25.855 83.4075 25.855 84.5175C25.855 85.6775 25.6475 86.665 25.2325 87.48C24.8225 88.295 24.1925 88.92 23.3425 89.355C22.4975 89.785 21.4225 90 20.1175 90H17.3125ZM19.165 88.4925H20.1475C20.8925 88.4925 21.55 88.365 22.12 88.11C22.69 87.85 23.135 87.43 23.455 86.85C23.78 86.27 23.9425 85.495 23.9425 84.525C23.9425 83.585 23.7925 82.8325 23.4925 82.2675C23.1925 81.7025 22.7625 81.295 22.2025 81.045C21.6425 80.79 20.9725 80.6625 20.1925 80.6625H19.165V88.4925ZM30.6826 90.15C29.9376 90.15 29.2801 89.9925 28.7101 89.6775C28.1451 89.3575 27.7026 88.9025 27.3826 88.3125C27.0676 87.7225 26.9101 87.02 26.9101 86.205C26.9101 85.41 27.0526 84.705 27.3376 84.09C27.6276 83.47 28.0451 82.9825 28.5901 82.6275C29.1401 82.2725 29.8026 82.095 30.5776 82.095C31.3426 82.095 31.9851 82.2575 32.5051 82.5825C33.0251 82.9075 33.4201 83.3625 33.6901 83.9475C33.9601 84.5275 34.0951 85.2075 34.0951 85.9875V86.5425H28.7326C28.7276 86.9825 28.7976 87.3725 28.9426 87.7125C29.0876 88.0525 29.3026 88.32 29.5876 88.515C29.8726 88.705 30.2251 88.8 30.6451 88.8C31.0751 88.8 31.4476 88.705 31.7626 88.515C32.0826 88.32 32.2951 88.025 32.4001 87.63H34.0651C33.9751 88.17 33.7601 88.6275 33.4201 89.0025C33.0851 89.3775 32.6751 89.6625 32.1901 89.8575C31.7101 90.0525 31.2076 90.15 30.6826 90.15ZM28.7251 85.41H32.3701C32.3701 85.035 32.3026 84.6975 32.1676 84.3975C32.0376 84.0925 31.8401 83.8525 31.5751 83.6775C31.3101 83.4975 30.9751 83.4075 30.5701 83.4075C30.1701 83.4075 29.8326 83.505 29.5576 83.7C29.2826 83.895 29.0751 84.1475 28.9351 84.4575C28.7951 84.7625 28.7251 85.08 28.7251 85.41ZM38.8666 90.15C38.1216 90.15 37.4641 89.9925 36.8941 89.6775C36.3291 89.3575 35.8866 88.9025 35.5666 88.3125C35.2516 87.7225 35.0941 87.02 35.0941 86.205C35.0941 85.41 35.2366 84.705 35.5216 84.09C35.8116 83.47 36.2291 82.9825 36.7741 82.6275C37.3241 82.2725 37.9866 82.095 38.7616 82.095C39.5266 82.095 40.1691 82.2575 40.6891 82.5825C41.2091 82.9075 41.6041 83.3625 41.8741 83.9475C42.1441 84.5275 42.2791 85.2075 42.2791 85.9875V86.5425H36.9166C36.9116 86.9825 36.9816 87.3725 37.1266 87.7125C37.2716 88.0525 37.4866 88.32 37.7716 88.515C38.0566 88.705 38.4091 88.8 38.8291 88.8C39.2591 88.8 39.6316 88.705 39.9466 88.515C40.2666 88.32 40.4791 88.025 40.5841 87.63H42.2491C42.1591 88.17 41.9441 88.6275 41.6041 89.0025C41.2691 89.3775 40.8591 89.6625 40.3741 89.8575C39.8941 90.0525 39.3916 90.15 38.8666 90.15ZM36.9091 85.41H40.5541C40.5541 85.035 40.4866 84.6975 40.3516 84.3975C40.2216 84.0925 40.0241 83.8525 39.7591 83.6775C39.4941 83.4975 39.1591 83.4075 38.7541 83.4075C38.3541 83.4075 38.0166 83.505 37.7416 83.7C37.4666 83.895 37.2591 84.1475 37.1191 84.4575C36.9791 84.7625 36.9091 85.08 36.9091 85.41ZM43.6231 92.415V82.245H45.4456L45.4606 83.4675C45.5606 83.2975 45.6881 83.13 45.8431 82.965C46.0031 82.8 46.1856 82.6525 46.3906 82.5225C46.6006 82.3925 46.8331 82.29 47.0881 82.215C47.3431 82.135 47.6231 82.095 47.9281 82.095C48.5231 82.095 49.0506 82.2375 49.5106 82.5225C49.9706 82.8025 50.3306 83.235 50.5906 83.82C50.8556 84.405 50.9881 85.145 50.9881 86.04C50.9881 86.955 50.8531 87.7175 50.5831 88.3275C50.3131 88.9375 49.9356 89.395 49.4506 89.7C48.9656 90 48.4031 90.15 47.7631 90.15C47.4681 90.15 47.1981 90.11 46.9531 90.03C46.7131 89.95 46.4981 89.84 46.3081 89.7C46.1181 89.56 45.9506 89.4075 45.8056 89.2425C45.6656 89.0775 45.5481 88.905 45.4531 88.725V92.415H43.6231ZM47.3581 88.785C47.9081 88.785 48.3631 88.5675 48.7231 88.1325C49.0831 87.6925 49.2631 87.005 49.2631 86.07C49.2631 85.26 49.0931 84.6225 48.7531 84.1575C48.4181 83.6875 47.9531 83.4525 47.3581 83.4525C46.7181 83.4525 46.2381 83.7 45.9181 84.195C45.5981 84.685 45.4381 85.31 45.4381 86.07C45.4381 86.56 45.5081 87.0125 45.6481 87.4275C45.7931 87.8375 46.0056 88.1675 46.2856 88.4175C46.5706 88.6625 46.9281 88.785 47.3581 88.785ZM57.4263 90L54.2613 79.155H56.0613L58.2588 86.985L60.4638 79.155H61.8288L64.0488 86.985L66.2538 79.155H68.0613L64.8738 90H63.3363L61.1463 82.3125L58.9263 90H57.4263ZM71.5033 90.15C70.7633 90.15 70.1183 89.9925 69.5683 89.6775C69.0183 89.3575 68.5908 88.9 68.2858 88.305C67.9858 87.71 67.8358 86.995 67.8358 86.16C67.8358 85.35 67.9833 84.64 68.2783 84.03C68.5733 83.42 68.9933 82.945 69.5383 82.605C70.0883 82.265 70.7458 82.095 71.5108 82.095C72.2508 82.095 72.8933 82.2575 73.4383 82.5825C73.9833 82.9075 74.4033 83.3725 74.6983 83.9775C74.9983 84.5825 75.1483 85.31 75.1483 86.16C75.1483 86.945 75.0058 87.6375 74.7208 88.2375C74.4408 88.8325 74.0283 89.3 73.4833 89.64C72.9433 89.98 72.2833 90.15 71.5033 90.15ZM71.5108 88.7625C71.9308 88.7625 72.2758 88.6475 72.5458 88.4175C72.8208 88.1875 73.0258 87.8725 73.1608 87.4725C73.2958 87.0725 73.3633 86.6175 73.3633 86.1075C73.3633 85.6325 73.3033 85.195 73.1833 84.795C73.0633 84.395 72.8658 84.075 72.5908 83.835C72.3208 83.59 71.9608 83.4675 71.5108 83.4675C71.0858 83.4675 70.7333 83.58 70.4533 83.805C70.1783 84.025 69.9733 84.335 69.8383 84.735C69.7033 85.13 69.6358 85.5875 69.6358 86.1075C69.6358 86.5775 69.6958 87.015 69.8158 87.42C69.9358 87.82 70.1333 88.145 70.4083 88.395C70.6833 88.64 71.0508 88.7625 71.5108 88.7625ZM76.4176 90V82.245H78.1651V83.925C78.2901 83.54 78.4676 83.2125 78.6976 82.9425C78.9326 82.6675 79.2076 82.4575 79.5226 82.3125C79.8376 82.1675 80.1801 82.095 80.5501 82.095C80.6401 82.095 80.7276 82.1 80.8126 82.11C80.8976 82.12 80.9601 82.1375 81.0001 82.1625V83.91C80.9451 83.885 80.8726 83.8675 80.7826 83.8575C80.6976 83.8475 80.6226 83.8425 80.5576 83.8425C80.1826 83.8125 79.8501 83.8275 79.5601 83.8875C79.2751 83.9475 79.0326 84.05 78.8326 84.195C78.6376 84.335 78.4901 84.515 78.3901 84.735C78.2901 84.95 78.2401 85.2025 78.2401 85.4925V90H76.4176ZM82.0528 90V78.855H83.8678V85.7625L87.0853 82.245H89.0878L86.2828 85.275L89.2303 90H87.3778L85.1278 86.4075L83.8678 87.7275V90H82.0528Z" fill="white"/>
</g>
<rect x="1" y="1" width="156" height="108" rx="15" stroke="white" stroke-opacity="0.2" stroke-width="2"/>
<defs>
<radialGradient id="paint0_radial_311_2209" cx="0" cy="0" r="1" gradientUnits="userSpaceOnUse" gradientTransform="translate(124 34) rotate(90) scale(72)">
<stop stop-color="#B59BF8"/>
<stop offset="1" stop-color="#B59BF8" stop-opacity="0"/>
</radialGradient>
<linearGradient id="paint1_linear_311_2209" x1="79" y1="55" x2="79" y2="110" gradientUnits="userSpaceOnUse">
<stop stop-opacity="0"/>
<stop offset="1" stop-opacity="0.6"/>
</linearGradient>
<clipPath id="clip0_311_2209">
<rect width="158" height="110" rx="16" fill="white"/>
</clipPath>
</defs>
</svg>
