<svg width="158" height="110" viewBox="0 0 158 110" fill="none" xmlns="http://www.w3.org/2000/svg">
<g clip-path="url(#clip0_311_2213)">
<rect width="158" height="110" rx="16" fill="#1F1E28"/>
<circle cx="124" cy="34" r="72" fill="url(#paint0_radial_311_2213)" fill-opacity="0.28"/>
<circle cx="123" cy="33" r="59.5" stroke="#9BBEF9" stroke-opacity="0.06"/>
<path d="M121.485 17.4545H128.568C129.138 17.4545 129.707 17.8423 129.897 18.424C130.15 18.941 130.086 19.5874 129.707 20.0398L124.774 25.7273H128.568C129.391 25.7273 130.086 26.4382 130.086 27.2784C130.086 28.1832 129.391 28.8295 128.568 28.8295H121.485C120.852 28.8295 120.346 28.5064 120.094 27.9247C119.841 27.4077 119.904 26.7614 120.283 26.3089L125.216 20.5568H121.485C120.599 20.5568 119.967 19.9105 119.967 19.0057C119.967 18.1655 120.599 17.4545 121.485 17.4545ZM129.58 31.9318H136.664C137.233 31.9318 137.739 32.3196 137.992 32.8366C138.245 33.3537 138.182 34 137.866 34.4524L132.679 41.3033H136.664C137.486 41.3033 138.182 41.9496 138.182 42.8544C138.182 43.6946 137.486 44.4055 136.664 44.4055H129.58C128.948 44.4055 128.442 44.0178 128.189 43.5007C127.936 42.9837 127.999 42.3374 128.379 41.8849L133.502 35.0341H129.58C128.695 35.0341 128.062 34.3878 128.062 33.483C128.062 32.6428 128.695 31.9318 129.58 31.9318ZM111.366 31.9318H122.497C123.066 31.9318 123.572 32.3196 123.825 32.8366C124.078 33.3537 124.015 33.9354 123.699 34.4524L114.338 47.4432H122.497C123.319 47.4432 124.015 48.1541 124.015 48.9943C124.015 49.8991 123.319 50.5455 122.497 50.5455H111.366C110.796 50.5455 110.227 50.2223 109.974 49.7053C109.721 49.1882 109.784 48.6065 110.101 48.0895L119.461 35.0341H111.366C110.48 35.0341 109.848 34.3878 109.848 33.483C109.848 32.6428 110.48 31.9318 111.366 31.9318Z" fill="#9BBEF9"/>
<circle opacity="0.2" cx="123.618" cy="33.6185" r="29.1907" stroke="#9BBEF9"/>
<circle opacity="0.1" cx="123" cy="33" r="43.4175" stroke="#9BBEF9"/>
<rect width="158" height="110" fill="url(#paint1_linear_311_2213)"/>
<path d="M17.3125 90V79.155H24.4825L24.475 80.7225H19.15V83.76H23.8525V85.305H19.135V88.41L24.5875 88.4175V90H17.3125ZM28.2379 90.15C27.7429 90.15 27.2979 90.06 26.9029 89.88C26.5129 89.695 26.2054 89.4325 25.9804 89.0925C25.7604 88.7475 25.6504 88.33 25.6504 87.84C25.6504 86.985 25.9579 86.34 26.5729 85.905C27.1929 85.47 28.1779 85.2425 29.5279 85.2225L30.6904 85.1925V84.6675C30.6904 84.2575 30.5679 83.9375 30.3229 83.7075C30.0829 83.4725 29.7079 83.3575 29.1979 83.3625C28.8179 83.3675 28.4729 83.4575 28.1629 83.6325C27.8529 83.8025 27.6479 84.09 27.5479 84.495H25.9954C26.0254 83.965 26.1779 83.5225 26.4529 83.1675C26.7329 82.8075 27.1154 82.54 27.6004 82.365C28.0854 82.185 28.6454 82.095 29.2804 82.095C30.0204 82.095 30.6229 82.1925 31.0879 82.3875C31.5529 82.5825 31.8954 82.865 32.1154 83.235C32.3354 83.6 32.4454 84.0425 32.4454 84.5625V90H30.9079L30.7579 88.605C30.4829 89.19 30.1304 89.595 29.7004 89.82C29.2754 90.04 28.7879 90.15 28.2379 90.15ZM28.8304 88.9125C29.0554 88.9125 29.2779 88.8725 29.4979 88.7925C29.7179 88.7075 29.9154 88.595 30.0904 88.455C30.2704 88.31 30.4129 88.15 30.5179 87.975C30.6279 87.8 30.6854 87.6175 30.6904 87.4275V86.205L29.7379 86.22C29.2679 86.225 28.8554 86.275 28.5004 86.37C28.1504 86.465 27.8779 86.6175 27.6829 86.8275C27.4879 87.0325 27.3904 87.3075 27.3904 87.6525C27.3904 88.0475 27.5279 88.3575 27.8029 88.5825C28.0779 88.8025 28.4204 88.9125 28.8304 88.9125ZM36.8857 90.15C36.3457 90.15 35.8332 90.065 35.3482 89.895C34.8682 89.72 34.4632 89.4475 34.1332 89.0775C33.8082 88.7075 33.6032 88.23 33.5182 87.645H35.1232C35.1932 87.93 35.3157 88.1625 35.4907 88.3425C35.6707 88.5225 35.8807 88.655 36.1207 88.74C36.3657 88.82 36.6182 88.86 36.8782 88.86C37.3432 88.86 37.7182 88.78 38.0032 88.62C38.2882 88.46 38.4307 88.2125 38.4307 87.8775C38.4307 87.6325 38.3507 87.4375 38.1907 87.2925C38.0357 87.1475 37.7807 87.0375 37.4257 86.9625L35.9557 86.625C35.2957 86.48 34.7682 86.24 34.3732 85.905C33.9782 85.57 33.7782 85.0975 33.7732 84.4875C33.7682 84.0275 33.8832 83.6175 34.1182 83.2575C34.3532 82.8975 34.7032 82.615 35.1682 82.41C35.6332 82.2 36.2057 82.095 36.8857 82.095C37.7907 82.095 38.5157 82.2975 39.0607 82.7025C39.6107 83.1025 39.8932 83.675 39.9082 84.42H38.3557C38.3007 84.085 38.1432 83.825 37.8832 83.64C37.6232 83.45 37.2857 83.355 36.8707 83.355C36.4407 83.355 36.0882 83.4375 35.8132 83.6025C35.5382 83.7675 35.4007 84.02 35.4007 84.36C35.4007 84.595 35.5032 84.78 35.7082 84.915C35.9182 85.05 36.2357 85.165 36.6607 85.26L38.0557 85.5975C38.4557 85.6975 38.7832 85.8325 39.0382 86.0025C39.2932 86.1725 39.4907 86.36 39.6307 86.565C39.7757 86.765 39.8757 86.9725 39.9307 87.1875C39.9907 87.3975 40.0207 87.5925 40.0207 87.7725C40.0207 88.2725 39.8907 88.7 39.6307 89.055C39.3757 89.405 39.0132 89.675 38.5432 89.865C38.0782 90.055 37.5257 90.15 36.8857 90.15ZM42.2479 92.475C41.7479 92.475 41.4004 92.435 41.2054 92.355C41.0104 92.28 40.9129 92.2425 40.9129 92.2425V91.0725L41.6929 91.095C42.0079 91.11 42.2629 91.0925 42.4579 91.0425C42.6579 90.9925 42.8129 90.9225 42.9229 90.8325C43.0329 90.7475 43.1129 90.655 43.1629 90.555C43.2179 90.46 43.2604 90.3775 43.2904 90.3075L43.4929 89.7375L40.4704 82.245H42.2854L44.3479 87.7275L46.4029 82.245H48.1879L44.9929 90.285C44.7529 90.87 44.4929 91.32 44.2129 91.635C43.9379 91.955 43.6354 92.175 43.3054 92.295C42.9804 92.415 42.6279 92.475 42.2479 92.475ZM56.2948 90.15C55.7548 90.15 55.2373 90.085 54.7423 89.955C54.2473 89.82 53.7948 89.6225 53.3848 89.3625C52.9798 89.0975 52.6448 88.77 52.3798 88.38C52.1148 87.985 51.9523 87.525 51.8923 87H53.7823C53.8623 87.365 54.0198 87.6725 54.2548 87.9225C54.4948 88.1725 54.7973 88.3625 55.1623 88.4925C55.5273 88.6225 55.9348 88.6875 56.3848 88.6875C56.7848 88.6875 57.1573 88.6275 57.5023 88.5075C57.8473 88.3875 58.1273 88.21 58.3423 87.975C58.5573 87.735 58.6648 87.44 58.6648 87.09C58.6648 86.695 58.5248 86.3875 58.2448 86.1675C57.9698 85.9425 57.5748 85.765 57.0598 85.635L54.9373 85.1325C54.3873 85.0075 53.9073 84.825 53.4973 84.585C53.0923 84.345 52.7773 84.03 52.5523 83.64C52.3273 83.245 52.2148 82.7625 52.2148 82.1925C52.2148 81.5425 52.3923 80.98 52.7473 80.505C53.1073 80.03 53.5948 79.665 54.2098 79.41C54.8248 79.15 55.5173 79.02 56.2873 79.02C57.1673 79.02 57.9098 79.1675 58.5148 79.4625C59.1198 79.7525 59.5798 80.1425 59.8948 80.6325C60.2098 81.1225 60.3698 81.66 60.3748 82.245H58.5298C58.4898 81.81 58.3623 81.4675 58.1473 81.2175C57.9323 80.9625 57.6598 80.7775 57.3298 80.6625C56.9998 80.5475 56.6348 80.49 56.2348 80.49C55.5248 80.49 54.9973 80.6425 54.6523 80.9475C54.3073 81.2525 54.1348 81.61 54.1348 82.02C54.1348 82.405 54.2623 82.71 54.5173 82.935C54.7723 83.16 55.1623 83.335 55.6873 83.46L57.7048 83.9325C58.3798 84.0725 58.9223 84.2875 59.3323 84.5775C59.7423 84.8675 60.0398 85.2125 60.2248 85.6125C60.4148 86.0075 60.5098 86.445 60.5098 86.925C60.5098 87.555 60.3298 88.1125 59.9698 88.5975C59.6148 89.0825 59.1223 89.4625 58.4923 89.7375C57.8623 90.0125 57.1298 90.15 56.2948 90.15ZM64.1845 90.1125C63.6845 90.1125 63.2845 90.05 62.9845 89.925C62.6845 89.8 62.4595 89.6325 62.3095 89.4225C62.1595 89.2125 62.062 88.9775 62.017 88.7175C61.972 88.4525 61.9495 88.1825 61.9495 87.9075V78.855H63.7345V87.6975C63.7345 88.0325 63.802 88.2925 63.937 88.4775C64.077 88.6625 64.302 88.77 64.612 88.8L65.002 88.815V89.9625C64.867 90.0025 64.7295 90.0375 64.5895 90.0675C64.4495 90.0975 64.3145 90.1125 64.1845 90.1125ZM69.3275 90.15C68.5825 90.15 67.925 89.9925 67.355 89.6775C66.79 89.3575 66.3475 88.9025 66.0275 88.3125C65.7125 87.7225 65.555 87.02 65.555 86.205C65.555 85.41 65.6975 84.705 65.9825 84.09C66.2725 83.47 66.69 82.9825 67.235 82.6275C67.785 82.2725 68.4475 82.095 69.2225 82.095C69.9875 82.095 70.63 82.2575 71.15 82.5825C71.67 82.9075 72.065 83.3625 72.335 83.9475C72.605 84.5275 72.74 85.2075 72.74 85.9875V86.5425H67.3775C67.3725 86.9825 67.4425 87.3725 67.5875 87.7125C67.7325 88.0525 67.9475 88.32 68.2325 88.515C68.5175 88.705 68.87 88.8 69.29 88.8C69.72 88.8 70.0925 88.705 70.4075 88.515C70.7275 88.32 70.94 88.025 71.045 87.63H72.71C72.62 88.17 72.405 88.6275 72.065 89.0025C71.73 89.3775 71.32 89.6625 70.835 89.8575C70.355 90.0525 69.8525 90.15 69.3275 90.15ZM67.37 85.41H71.015C71.015 85.035 70.9475 84.6975 70.8125 84.3975C70.6825 84.0925 70.485 83.8525 70.22 83.6775C69.955 83.4975 69.62 83.4075 69.215 83.4075C68.815 83.4075 68.4775 83.505 68.2025 83.7C67.9275 83.895 67.72 84.1475 67.58 84.4575C67.44 84.7625 67.37 85.08 67.37 85.41ZM77.5115 90.15C76.7665 90.15 76.109 89.9925 75.539 89.6775C74.974 89.3575 74.5315 88.9025 74.2115 88.3125C73.8965 87.7225 73.739 87.02 73.739 86.205C73.739 85.41 73.8815 84.705 74.1665 84.09C74.4565 83.47 74.874 82.9825 75.419 82.6275C75.969 82.2725 76.6315 82.095 77.4065 82.095C78.1715 82.095 78.814 82.2575 79.334 82.5825C79.854 82.9075 80.249 83.3625 80.519 83.9475C80.789 84.5275 80.924 85.2075 80.924 85.9875V86.5425H75.5615C75.5565 86.9825 75.6265 87.3725 75.7715 87.7125C75.9165 88.0525 76.1315 88.32 76.4165 88.515C76.7015 88.705 77.054 88.8 77.474 88.8C77.904 88.8 78.2765 88.705 78.5915 88.515C78.9115 88.32 79.124 88.025 79.229 87.63H80.894C80.804 88.17 80.589 88.6275 80.249 89.0025C79.914 89.3775 79.504 89.6625 79.019 89.8575C78.539 90.0525 78.0365 90.15 77.5115 90.15ZM75.554 85.41H79.199C79.199 85.035 79.1315 84.6975 78.9965 84.3975C78.8665 84.0925 78.669 83.8525 78.404 83.6775C78.139 83.4975 77.804 83.4075 77.399 83.4075C76.999 83.4075 76.6615 83.505 76.3865 83.7C76.1115 83.895 75.904 84.1475 75.764 84.4575C75.624 84.7625 75.554 85.08 75.554 85.41ZM82.268 92.415V82.245H84.0905L84.1055 83.4675C84.2055 83.2975 84.333 83.13 84.488 82.965C84.648 82.8 84.8305 82.6525 85.0355 82.5225C85.2455 82.3925 85.478 82.29 85.733 82.215C85.988 82.135 86.268 82.095 86.573 82.095C87.168 82.095 87.6955 82.2375 88.1555 82.5225C88.6155 82.8025 88.9755 83.235 89.2355 83.82C89.5005 84.405 89.633 85.145 89.633 86.04C89.633 86.955 89.498 87.7175 89.228 88.3275C88.958 88.9375 88.5805 89.395 88.0955 89.7C87.6105 90 87.048 90.15 86.408 90.15C86.113 90.15 85.843 90.11 85.598 90.03C85.358 89.95 85.143 89.84 84.953 89.7C84.763 89.56 84.5955 89.4075 84.4505 89.2425C84.3105 89.0775 84.193 88.905 84.098 88.725V92.415H82.268ZM86.003 88.785C86.553 88.785 87.008 88.5675 87.368 88.1325C87.728 87.6925 87.908 87.005 87.908 86.07C87.908 85.26 87.738 84.6225 87.398 84.1575C87.063 83.6875 86.598 83.4525 86.003 83.4525C85.363 83.4525 84.883 83.7 84.563 84.195C84.243 84.685 84.083 85.31 84.083 86.07C84.083 86.56 84.153 87.0125 84.293 87.4275C84.438 87.8375 84.6505 88.1675 84.9305 88.4175C85.2155 88.6625 85.573 88.785 86.003 88.785Z" fill="white"/>
</g>
<rect x="1" y="1" width="156" height="108" rx="15" stroke="white" stroke-opacity="0.2" stroke-width="2"/>
<defs>
<radialGradient id="paint0_radial_311_2213" cx="0" cy="0" r="1" gradientUnits="userSpaceOnUse" gradientTransform="translate(124 34) rotate(90) scale(72)">
<stop stop-color="#9BBEF8"/>
<stop offset="1" stop-color="#9BBEF8" stop-opacity="0"/>
</radialGradient>
<linearGradient id="paint1_linear_311_2213" x1="79" y1="55" x2="79" y2="110" gradientUnits="userSpaceOnUse">
<stop stop-opacity="0"/>
<stop offset="1" stop-opacity="0.6"/>
</linearGradient>
<clipPath id="clip0_311_2213">
<rect width="158" height="110" rx="16" fill="white"/>
</clipPath>
</defs>
</svg>
