<svg width="158" height="110" viewBox="0 0 158 110" fill="none" xmlns="http://www.w3.org/2000/svg">
<g clip-path="url(#clip0_311_2211)">
<rect width="158" height="110" rx="16" fill="#1F1E28"/>
<circle cx="124" cy="34" r="72" fill="url(#paint0_radial_311_2211)" fill-opacity="0.28"/>
<circle cx="123" cy="33" r="59.5" stroke="#EB93B9" stroke-opacity="0.06"/>
<path d="M132.484 20.3184L127.272 31.9623H134.853C135.733 31.9623 136.545 32.4798 136.884 33.2561C137.155 34.097 136.952 35.0027 136.275 35.5849L118.945 50.0751C118.133 50.6573 117.05 50.722 116.238 50.1398C115.425 49.6223 115.087 48.5873 115.493 47.6816L120.705 36.0377H113.192C112.244 36.0377 111.432 35.5202 111.161 34.7439C110.822 33.903 111.025 32.9973 111.702 32.4151L129.032 17.9249C129.844 17.3427 130.927 17.278 131.739 17.8602C132.552 18.3777 132.89 19.4127 132.484 20.3184Z" fill="#EB93B9"/>
<circle opacity="0.2" cx="123.618" cy="33.6185" r="29.1907" stroke="#EB93B9"/>
<circle opacity="0.1" cx="123" cy="33" r="43.4175" stroke="#EB93B9"/>
<rect width="158" height="110" fill="url(#paint1_linear_311_2211)"/>
<path d="M17.3125 90V79.155H24.4825L24.475 80.7225H19.15V83.76H23.8525V85.305H19.135V88.41L24.5875 88.4175V90H17.3125ZM25.9368 90V82.245H27.7218V83.355C27.8418 83.155 28.0043 82.9625 28.2093 82.7775C28.4193 82.5925 28.6768 82.4425 28.9818 82.3275C29.2868 82.2125 29.6443 82.155 30.0543 82.155C30.5343 82.155 30.9793 82.25 31.3893 82.44C31.8043 82.63 32.1368 82.9275 32.3868 83.3325C32.6418 83.7375 32.7693 84.26 32.7693 84.9V90H30.9393V85.1175C30.9393 84.6075 30.7993 84.23 30.5193 83.985C30.2393 83.735 29.8868 83.61 29.4618 83.61C29.1718 83.61 28.8968 83.66 28.6368 83.76C28.3768 83.855 28.1643 84.0025 27.9993 84.2025C27.8393 84.3975 27.7593 84.6425 27.7593 84.9375V90H25.9368ZM37.7533 90.15C37.0083 90.15 36.3508 89.9925 35.7808 89.6775C35.2158 89.3575 34.7733 88.9025 34.4533 88.3125C34.1383 87.7225 33.9808 87.02 33.9808 86.205C33.9808 85.41 34.1233 84.705 34.4083 84.09C34.6983 83.47 35.1158 82.9825 35.6608 82.6275C36.2108 82.2725 36.8733 82.095 37.6483 82.095C38.4133 82.095 39.0558 82.2575 39.5758 82.5825C40.0958 82.9075 40.4908 83.3625 40.7608 83.9475C41.0308 84.5275 41.1658 85.2075 41.1658 85.9875V86.5425H35.8033C35.7983 86.9825 35.8683 87.3725 36.0133 87.7125C36.1583 88.0525 36.3733 88.32 36.6583 88.515C36.9433 88.705 37.2958 88.8 37.7158 88.8C38.1458 88.8 38.5183 88.705 38.8333 88.515C39.1533 88.32 39.3658 88.025 39.4708 87.63H41.1358C41.0458 88.17 40.8308 88.6275 40.4908 89.0025C40.1558 89.3775 39.7458 89.6625 39.2608 89.8575C38.7808 90.0525 38.2783 90.15 37.7533 90.15ZM35.7958 85.41H39.4408C39.4408 85.035 39.3733 84.6975 39.2383 84.3975C39.1083 84.0925 38.9108 83.8525 38.6458 83.6775C38.3808 83.4975 38.0458 83.4075 37.6408 83.4075C37.2408 83.4075 36.9033 83.505 36.6283 83.7C36.3533 83.895 36.1458 84.1475 36.0058 84.4575C35.8658 84.7625 35.7958 85.08 35.7958 85.41ZM42.5098 90V82.245H44.2573V83.925C44.3823 83.54 44.5598 83.2125 44.7898 82.9425C45.0248 82.6675 45.2998 82.4575 45.6148 82.3125C45.9298 82.1675 46.2723 82.095 46.6423 82.095C46.7323 82.095 46.8198 82.1 46.9048 82.11C46.9898 82.12 47.0523 82.1375 47.0923 82.1625V83.91C47.0373 83.885 46.9648 83.8675 46.8748 83.8575C46.7898 83.8475 46.7148 83.8425 46.6498 83.8425C46.2748 83.8125 45.9423 83.8275 45.6523 83.8875C45.3673 83.9475 45.1248 84.05 44.9248 84.195C44.7298 84.335 44.5823 84.515 44.4823 84.735C44.3823 84.95 44.3323 85.2025 44.3323 85.4925V90H42.5098ZM51.4192 92.565C50.1142 92.565 49.1117 92.39 48.4117 92.04C47.7117 91.69 47.3617 91.21 47.3617 90.6C47.3617 90.325 47.4292 90.095 47.5642 89.91C47.6992 89.725 47.8592 89.5725 48.0442 89.4525C48.2292 89.3325 48.3992 89.24 48.5542 89.175C48.7092 89.11 48.8092 89.0625 48.8542 89.0325C48.7692 88.9825 48.6567 88.9175 48.5167 88.8375C48.3767 88.7575 48.2492 88.6475 48.1342 88.5075C48.0242 88.3675 47.9692 88.185 47.9692 87.96C47.9692 87.7 48.0917 87.46 48.3367 87.24C48.5867 87.02 48.9592 86.8625 49.4542 86.7675C48.9692 86.5325 48.5967 86.215 48.3367 85.815C48.0767 85.415 47.9467 85 47.9467 84.57C47.9467 84.06 48.0942 83.6225 48.3892 83.2575C48.6892 82.8925 49.1042 82.6125 49.6342 82.4175C50.1642 82.2225 50.7817 82.125 51.4867 82.125C52.0017 82.125 52.4292 82.1825 52.7692 82.2975C53.1142 82.4125 53.4342 82.5675 53.7292 82.7625C53.8292 82.7225 53.9692 82.6675 54.1492 82.5975C54.3292 82.5225 54.5267 82.4425 54.7417 82.3575C54.9567 82.2675 55.1642 82.1825 55.3642 82.1025C55.5642 82.0175 55.7317 81.9475 55.8667 81.8925L55.8592 83.4L54.5167 83.64C54.5817 83.785 54.6317 83.9425 54.6667 84.1125C54.7067 84.2825 54.7267 84.4325 54.7267 84.5625C54.7267 85.0125 54.5992 85.43 54.3442 85.815C54.0942 86.195 53.7167 86.5 53.2117 86.73C52.7117 86.96 52.0867 87.075 51.3367 87.075C51.2617 87.075 51.1592 87.0725 51.0292 87.0675C50.8992 87.0625 50.7942 87.0575 50.7142 87.0525C50.3092 87.0675 50.0317 87.115 49.8817 87.195C49.7317 87.275 49.6567 87.3625 49.6567 87.4575C49.6567 87.5925 49.7692 87.6825 49.9942 87.7275C50.2192 87.7725 50.5792 87.8125 51.0742 87.8475C51.2492 87.8575 51.4792 87.87 51.7642 87.885C52.0492 87.9 52.3667 87.92 52.7167 87.945C53.6017 88 54.2717 88.2225 54.7267 88.6125C55.1817 88.9975 55.4092 89.4975 55.4092 90.1125C55.4092 90.8275 55.0792 91.415 54.4192 91.875C53.7592 92.335 52.7592 92.565 51.4192 92.565ZM51.7267 91.4925C52.3817 91.4925 52.8667 91.4025 53.1817 91.2225C53.4967 91.0425 53.6542 90.7775 53.6542 90.4275C53.6542 90.1575 53.5467 89.9375 53.3317 89.7675C53.1167 89.5975 52.7967 89.4975 52.3717 89.4675L50.4142 89.3475C50.1992 89.3325 49.9942 89.3725 49.7992 89.4675C49.6092 89.5575 49.4542 89.685 49.3342 89.85C49.2142 90.01 49.1542 90.1875 49.1542 90.3825C49.1542 90.7475 49.3617 91.0225 49.7767 91.2075C50.1967 91.3975 50.8467 91.4925 51.7267 91.4925ZM51.3967 86.0025C51.8717 86.0025 52.2567 85.8825 52.5517 85.6425C52.8467 85.3975 52.9942 85.0525 52.9942 84.6075C52.9942 84.1475 52.8467 83.79 52.5517 83.535C52.2567 83.275 51.8717 83.145 51.3967 83.145C50.9117 83.145 50.5192 83.275 50.2192 83.535C49.9242 83.795 49.7767 84.1525 49.7767 84.6075C49.7767 85.0375 49.9192 85.3775 50.2042 85.6275C50.4892 85.8775 50.8867 86.0025 51.3967 86.0025ZM58.0592 92.475C57.5592 92.475 57.2117 92.435 57.0167 92.355C56.8217 92.28 56.7242 92.2425 56.7242 92.2425V91.0725L57.5042 91.095C57.8192 91.11 58.0742 91.0925 58.2692 91.0425C58.4692 90.9925 58.6242 90.9225 58.7342 90.8325C58.8442 90.7475 58.9242 90.655 58.9742 90.555C59.0292 90.46 59.0717 90.3775 59.1017 90.3075L59.3042 89.7375L56.2817 82.245H58.0967L60.1592 87.7275L62.2142 82.245H63.9992L60.8042 90.285C60.5642 90.87 60.3042 91.32 60.0242 91.635C59.7492 91.955 59.4467 92.175 59.1167 92.295C58.7917 92.415 58.4392 92.475 58.0592 92.475ZM68.2137 90V79.155H71.9412C73.3162 79.155 74.3437 79.4 75.0237 79.89C75.7087 80.375 76.0512 81.075 76.0512 81.99C76.0512 82.545 75.9087 83.025 75.6237 83.43C75.3387 83.835 74.8362 84.1775 74.1162 84.4575C74.5562 84.5625 74.9187 84.7075 75.2037 84.8925C75.4937 85.0725 75.7187 85.28 75.8787 85.515C76.0387 85.745 76.1512 85.9925 76.2162 86.2575C76.2812 86.5225 76.3137 86.795 76.3137 87.075C76.3137 88.065 75.9687 88.8 75.2787 89.28C74.5937 89.76 73.5312 90 72.0912 90H68.2137ZM70.0362 88.545H72.1137C72.8837 88.545 73.4662 88.4075 73.8612 88.1325C74.2612 87.8525 74.4612 87.45 74.4612 86.925C74.4612 86.545 74.3637 86.2325 74.1687 85.9875C73.9737 85.7375 73.7087 85.5525 73.3737 85.4325C73.0387 85.3125 72.6637 85.2525 72.2487 85.2525H70.0362V88.545ZM70.0362 83.775H72.2487C72.5037 83.775 72.7512 83.7475 72.9912 83.6925C73.2312 83.6375 73.4487 83.55 73.6437 83.43C73.8387 83.31 73.9937 83.15 74.1087 82.95C74.2287 82.75 74.2887 82.5075 74.2887 82.2225C74.2887 81.6775 74.0812 81.2725 73.6662 81.0075C73.2562 80.7375 72.7287 80.6025 72.0837 80.6025H70.0362V83.775ZM81.0304 90.15C80.2904 90.15 79.6454 89.9925 79.0954 89.6775C78.5454 89.3575 78.1179 88.9 77.8129 88.305C77.5129 87.71 77.3629 86.995 77.3629 86.16C77.3629 85.35 77.5104 84.64 77.8054 84.03C78.1004 83.42 78.5204 82.945 79.0654 82.605C79.6154 82.265 80.2729 82.095 81.0379 82.095C81.7779 82.095 82.4204 82.2575 82.9654 82.5825C83.5104 82.9075 83.9304 83.3725 84.2254 83.9775C84.5254 84.5825 84.6754 85.31 84.6754 86.16C84.6754 86.945 84.5329 87.6375 84.2479 88.2375C83.9679 88.8325 83.5554 89.3 83.0104 89.64C82.4704 89.98 81.8104 90.15 81.0304 90.15ZM81.0379 88.7625C81.4579 88.7625 81.8029 88.6475 82.0729 88.4175C82.3479 88.1875 82.5529 87.8725 82.6879 87.4725C82.8229 87.0725 82.8904 86.6175 82.8904 86.1075C82.8904 85.6325 82.8304 85.195 82.7104 84.795C82.5904 84.395 82.3929 84.075 82.1179 83.835C81.8479 83.59 81.4879 83.4675 81.0379 83.4675C80.6129 83.4675 80.2604 83.58 79.9804 83.805C79.7054 84.025 79.5004 84.335 79.3654 84.735C79.2304 85.13 79.1629 85.5875 79.1629 86.1075C79.1629 86.5775 79.2229 87.015 79.3429 87.42C79.4629 87.82 79.6604 88.145 79.9354 88.395C80.2104 88.64 80.5779 88.7625 81.0379 88.7625ZM89.1998 90.15C88.4598 90.15 87.8148 89.9925 87.2648 89.6775C86.7148 89.3575 86.2873 88.9 85.9823 88.305C85.6823 87.71 85.5323 86.995 85.5323 86.16C85.5323 85.35 85.6798 84.64 85.9748 84.03C86.2698 83.42 86.6898 82.945 87.2348 82.605C87.7848 82.265 88.4423 82.095 89.2073 82.095C89.9473 82.095 90.5898 82.2575 91.1348 82.5825C91.6798 82.9075 92.0998 83.3725 92.3948 83.9775C92.6948 84.5825 92.8448 85.31 92.8448 86.16C92.8448 86.945 92.7023 87.6375 92.4173 88.2375C92.1373 88.8325 91.7248 89.3 91.1798 89.64C90.6398 89.98 89.9798 90.15 89.1998 90.15ZM89.2073 88.7625C89.6273 88.7625 89.9723 88.6475 90.2423 88.4175C90.5173 88.1875 90.7223 87.8725 90.8573 87.4725C90.9923 87.0725 91.0598 86.6175 91.0598 86.1075C91.0598 85.6325 90.9998 85.195 90.8798 84.795C90.7598 84.395 90.5623 84.075 90.2873 83.835C90.0173 83.59 89.6573 83.4675 89.2073 83.4675C88.7823 83.4675 88.4298 83.58 88.1498 83.805C87.8748 84.025 87.6698 84.335 87.5348 84.735C87.3998 85.13 87.3323 85.5875 87.3323 86.1075C87.3323 86.5775 87.3923 87.015 87.5123 87.42C87.6323 87.82 87.8298 88.145 88.1048 88.395C88.3798 88.64 88.7473 88.7625 89.2073 88.7625ZM97.0548 90.15C96.5148 90.15 96.0023 90.065 95.5173 89.895C95.0373 89.72 94.6323 89.4475 94.3023 89.0775C93.9773 88.7075 93.7723 88.23 93.6873 87.645H95.2923C95.3623 87.93 95.4848 88.1625 95.6598 88.3425C95.8398 88.5225 96.0498 88.655 96.2898 88.74C96.5348 88.82 96.7873 88.86 97.0473 88.86C97.5123 88.86 97.8873 88.78 98.1723 88.62C98.4573 88.46 98.5998 88.2125 98.5998 87.8775C98.5998 87.6325 98.5198 87.4375 98.3598 87.2925C98.2048 87.1475 97.9498 87.0375 97.5948 86.9625L96.1248 86.625C95.4648 86.48 94.9373 86.24 94.5423 85.905C94.1473 85.57 93.9473 85.0975 93.9423 84.4875C93.9373 84.0275 94.0523 83.6175 94.2873 83.2575C94.5223 82.8975 94.8723 82.615 95.3373 82.41C95.8023 82.2 96.3748 82.095 97.0548 82.095C97.9598 82.095 98.6848 82.2975 99.2298 82.7025C99.7798 83.1025 100.062 83.675 100.077 84.42H98.5248C98.4698 84.085 98.3123 83.825 98.0523 83.64C97.7923 83.45 97.4548 83.355 97.0398 83.355C96.6098 83.355 96.2573 83.4375 95.9823 83.6025C95.7073 83.7675 95.5698 84.02 95.5698 84.36C95.5698 84.595 95.6723 84.78 95.8773 84.915C96.0873 85.05 96.4048 85.165 96.8298 85.26L98.2248 85.5975C98.6248 85.6975 98.9523 85.8325 99.2073 86.0025C99.4623 86.1725 99.6598 86.36 99.7998 86.565C99.9448 86.765 100.045 86.9725 100.1 87.1875C100.16 87.3975 100.19 87.5925 100.19 87.7725C100.19 88.2725 100.06 88.7 99.7998 89.055C99.5448 89.405 99.1823 89.675 98.7123 89.865C98.2473 90.055 97.6948 90.15 97.0548 90.15ZM104.473 90.06C103.858 90.06 103.381 89.98 103.041 89.82C102.706 89.655 102.473 89.4225 102.343 89.1225C102.213 88.8225 102.148 88.465 102.148 88.05V83.535H100.888V82.245H102.201L102.658 79.9425H103.971V82.2375H105.703V83.535H103.971L103.978 87.9825C103.978 88.2125 104.003 88.3825 104.053 88.4925C104.108 88.5975 104.193 88.6675 104.308 88.7025C104.428 88.7325 104.586 88.7475 104.781 88.7475H105.741V89.9025C105.636 89.9425 105.481 89.9775 105.276 90.0075C105.076 90.0425 104.808 90.06 104.473 90.06Z" fill="white"/>
</g>
<rect x="1" y="1" width="156" height="108" rx="15" stroke="white" stroke-opacity="0.2" stroke-width="2"/>
<defs>
<radialGradient id="paint0_radial_311_2211" cx="0" cy="0" r="1" gradientUnits="userSpaceOnUse" gradientTransform="translate(124 34) rotate(90) scale(72)">
<stop stop-color="#EB93B9"/>
<stop offset="1" stop-color="#EB93B9" stop-opacity="0"/>
</radialGradient>
<linearGradient id="paint1_linear_311_2211" x1="79" y1="55" x2="79" y2="110" gradientUnits="userSpaceOnUse">
<stop stop-opacity="0"/>
<stop offset="1" stop-opacity="0.6"/>
</linearGradient>
<clipPath id="clip0_311_2211">
<rect width="158" height="110" rx="16" fill="white"/>
</clipPath>
</defs>
</svg>
