<svg width="158" height="110" viewBox="0 0 158 110" fill="none" xmlns="http://www.w3.org/2000/svg">
<g clip-path="url(#clip0_311_2208)">
<rect width="158" height="110" rx="16" fill="#1F1E28"/>
<circle cx="124" cy="34" r="72" fill="url(#paint0_radial_311_2208)" fill-opacity="0.28"/>
<circle cx="123" cy="33" r="59.5" stroke="white" stroke-opacity="0.06"/>
<path d="M124 17.4545C121.602 17.4545 119.66 19.3906 119.66 21.7814C119.66 24.1723 121.602 26.1083 124 26.1083C126.398 26.1083 128.34 24.1723 128.34 21.7814C128.34 19.3906 126.398 17.4545 124 17.4545ZM124 26.9196C120.905 26.9196 117.614 28.2226 117.614 28.2226V28.2472C116.556 28.4562 115.706 29.2244 115.394 30.2386H115.37L112.78 36.9747C112.78 36.9747 109.02 40.2506 108.12 40.982C107.22 41.7134 107.279 42.9949 108.021 43.6618C108.764 44.3255 109.778 44.1258 110.808 43.3176C111.551 42.7368 114.722 40.2599 115.172 39.8266C115.622 39.3933 115.958 38.8585 116.183 38.4252C116.341 38.1241 117.792 35.4351 118.477 34.1721V40.7362C118.477 41.8118 115.807 43.336 114.285 44.2764C112.377 45.4595 110.882 46.2585 110.882 47.8903C110.882 49.7495 112.858 50.5455 114.581 50.5455H116.923C116.646 50.149 116.479 49.6604 116.479 49.0458C116.479 45.902 120.184 45.269 122.397 44.891C125.637 44.3378 127.97 43.9598 127.995 43.9568C128.038 43.9506 128.099 43.9598 128.143 43.9568C128.158 43.9537 128.152 43.9568 128.167 43.9568C128.173 43.9568 128.186 43.9568 128.192 43.9568C128.21 43.9568 128.223 43.9568 128.241 43.9568C128.247 43.9568 128.26 43.9537 128.266 43.9568C128.657 44.0029 128.956 44.3378 128.956 44.7435C128.956 45.1522 128.642 45.4657 128.241 45.5056C128.241 45.5087 128.241 45.5302 128.241 45.5302C128.241 45.5302 125.936 45.8805 122.668 46.4398C120.089 46.8823 118.057 47.4048 118.057 49.0458C118.057 50.149 119.152 50.4686 120.227 50.5455H121.978C121.987 50.5455 121.993 50.5455 122.003 50.5455H131.57C132.815 50.5455 137.118 50.4932 137.118 48.1116C137.118 46.6273 135.901 45.8436 134.431 44.8664C131.641 43.0133 129.524 41.6919 129.524 40.687V34.1967C130.208 35.4597 131.66 38.121 131.817 38.4252C132.042 38.8585 132.378 39.3933 132.828 39.8266C133.278 40.2599 136.453 42.7368 137.192 43.3176C138.225 44.1258 139.236 44.3255 139.979 43.6618C140.721 42.9949 140.78 41.7134 139.88 40.982C138.98 40.2506 135.22 36.9747 135.22 36.9747L132.63 30.2386H132.606C132.294 29.2183 131.428 28.4254 130.362 28.2226C129.822 28.0167 126.808 26.9196 124 26.9196Z" fill="white"/>
<circle opacity="0.2" cx="123.618" cy="33.6185" r="29.1907" stroke="white"/>
<circle opacity="0.1" cx="123" cy="33" r="43.4175" stroke="white"/>
<rect width="158" height="110" fill="url(#paint1_linear_311_2208)"/>
<path d="M17.3125 90V79.155H19.9225L22.765 87.4425L25.6375 79.155H28.2325V90H26.38V81.495L23.5225 90H22L19.165 81.5475V90H17.3125ZM33.4512 90.15C32.7062 90.15 32.0487 89.9925 31.4787 89.6775C30.9137 89.3575 30.4712 88.9025 30.1512 88.3125C29.8362 87.7225 29.6787 87.02 29.6787 86.205C29.6787 85.41 29.8212 84.705 30.1062 84.09C30.3962 83.47 30.8137 82.9825 31.3587 82.6275C31.9087 82.2725 32.5712 82.095 33.3462 82.095C34.1112 82.095 34.7537 82.2575 35.2737 82.5825C35.7937 82.9075 36.1887 83.3625 36.4587 83.9475C36.7287 84.5275 36.8637 85.2075 36.8637 85.9875V86.5425H31.5012C31.4962 86.9825 31.5662 87.3725 31.7112 87.7125C31.8562 88.0525 32.0712 88.32 32.3562 88.515C32.6412 88.705 32.9937 88.8 33.4137 88.8C33.8437 88.8 34.2162 88.705 34.5312 88.515C34.8512 88.32 35.0637 88.025 35.1687 87.63H36.8337C36.7437 88.17 36.5287 88.6275 36.1887 89.0025C35.8537 89.3775 35.4437 89.6625 34.9587 89.8575C34.4787 90.0525 33.9762 90.15 33.4512 90.15ZM31.4937 85.41H35.1387C35.1387 85.035 35.0712 84.6975 34.9362 84.3975C34.8062 84.0925 34.6087 83.8525 34.3437 83.6775C34.0787 83.4975 33.7437 83.4075 33.3387 83.4075C32.9387 83.4075 32.6012 83.505 32.3262 83.7C32.0512 83.895 31.8437 84.1475 31.7037 84.4575C31.5637 84.7625 31.4937 85.08 31.4937 85.41ZM41.0877 90.15C40.0627 90.15 39.2577 89.7975 38.6727 89.0925C38.0877 88.3875 37.7952 87.385 37.7952 86.085C37.7952 85.275 37.9127 84.5725 38.1477 83.9775C38.3877 83.3775 38.7402 82.915 39.2052 82.59C39.6702 82.26 40.2427 82.095 40.9227 82.095C41.2427 82.095 41.5327 82.135 41.7927 82.215C42.0577 82.29 42.2927 82.39 42.4977 82.515C42.7027 82.64 42.8752 82.7775 43.0152 82.9275C43.1602 83.0775 43.2727 83.2275 43.3527 83.3775V78.855H45.1902V90H43.8402L43.6377 88.41C43.5727 88.595 43.4802 88.79 43.3602 88.995C43.2452 89.195 43.0877 89.3825 42.8877 89.5575C42.6927 89.7325 42.4477 89.875 42.1527 89.985C41.8577 90.095 41.5027 90.15 41.0877 90.15ZM41.4627 88.8075C42.1177 88.8075 42.5952 88.595 42.8952 88.17C43.2002 87.74 43.3527 87.03 43.3527 86.04C43.3477 85.475 43.2777 85 43.1427 84.615C43.0127 84.23 42.8127 83.94 42.5427 83.745C42.2727 83.55 41.9202 83.4525 41.4852 83.4525C40.9352 83.4525 40.4827 83.655 40.1277 84.06C39.7777 84.465 39.6027 85.125 39.6027 86.04C39.6027 86.95 39.7652 87.64 40.0902 88.11C40.4152 88.575 40.8727 88.8075 41.4627 88.8075ZM46.949 90V82.245H48.6965V90H46.949ZM46.919 80.8875V79.1625H48.7265V80.8875H46.919ZM53.4987 90.06C52.8837 90.06 52.4062 89.98 52.0662 89.82C51.7312 89.655 51.4987 89.4225 51.3687 89.1225C51.2387 88.8225 51.1737 88.465 51.1737 88.05V83.535H49.9137V82.245H51.2262L51.6837 79.9425H52.9962V82.2375H54.7287V83.535H52.9962L53.0037 87.9825C53.0037 88.2125 53.0287 88.3825 53.0787 88.4925C53.1337 88.5975 53.2187 88.6675 53.3337 88.7025C53.4537 88.7325 53.6112 88.7475 53.8062 88.7475H54.7662V89.9025C54.6612 89.9425 54.5062 89.9775 54.3012 90.0075C54.1012 90.0425 53.8337 90.06 53.4987 90.06ZM58.2638 90.15C57.7688 90.15 57.3238 90.06 56.9288 89.88C56.5388 89.695 56.2313 89.4325 56.0063 89.0925C55.7863 88.7475 55.6763 88.33 55.6763 87.84C55.6763 86.985 55.9838 86.34 56.5988 85.905C57.2188 85.47 58.2038 85.2425 59.5538 85.2225L60.7163 85.1925V84.6675C60.7163 84.2575 60.5938 83.9375 60.3488 83.7075C60.1088 83.4725 59.7338 83.3575 59.2238 83.3625C58.8438 83.3675 58.4988 83.4575 58.1888 83.6325C57.8788 83.8025 57.6738 84.09 57.5738 84.495H56.0213C56.0513 83.965 56.2038 83.5225 56.4788 83.1675C56.7588 82.8075 57.1413 82.54 57.6263 82.365C58.1113 82.185 58.6713 82.095 59.3063 82.095C60.0463 82.095 60.6488 82.1925 61.1138 82.3875C61.5788 82.5825 61.9213 82.865 62.1413 83.235C62.3613 83.6 62.4713 84.0425 62.4713 84.5625V90H60.9338L60.7838 88.605C60.5088 89.19 60.1563 89.595 59.7263 89.82C59.3013 90.04 58.8138 90.15 58.2638 90.15ZM58.8563 88.9125C59.0813 88.9125 59.3038 88.8725 59.5238 88.7925C59.7438 88.7075 59.9413 88.595 60.1163 88.455C60.2963 88.31 60.4388 88.15 60.5438 87.975C60.6538 87.8 60.7113 87.6175 60.7163 87.4275V86.205L59.7638 86.22C59.2938 86.225 58.8813 86.275 58.5263 86.37C58.1763 86.465 57.9038 86.6175 57.7088 86.8275C57.5138 87.0325 57.4163 87.3075 57.4163 87.6525C57.4163 88.0475 57.5538 88.3575 57.8288 88.5825C58.1038 88.8025 58.4463 88.9125 58.8563 88.9125ZM66.8198 90.06C66.2048 90.06 65.7273 89.98 65.3873 89.82C65.0523 89.655 64.8198 89.4225 64.6898 89.1225C64.5598 88.8225 64.4948 88.465 64.4948 88.05V83.535H63.2348V82.245H64.5473L65.0048 79.9425H66.3173V82.2375H68.0498V83.535H66.3173L66.3248 87.9825C66.3248 88.2125 66.3498 88.3825 66.3998 88.4925C66.4548 88.5975 66.5398 88.6675 66.6548 88.7025C66.7748 88.7325 66.9323 88.7475 67.1273 88.7475H68.0873V89.9025C67.9823 89.9425 67.8273 89.9775 67.6223 90.0075C67.4223 90.0425 67.1548 90.06 66.8198 90.06ZM72.5795 90.15C71.8345 90.15 71.177 89.9925 70.607 89.6775C70.042 89.3575 69.5995 88.9025 69.2795 88.3125C68.9645 87.7225 68.807 87.02 68.807 86.205C68.807 85.41 68.9495 84.705 69.2345 84.09C69.5245 83.47 69.942 82.9825 70.487 82.6275C71.037 82.2725 71.6995 82.095 72.4745 82.095C73.2395 82.095 73.882 82.2575 74.402 82.5825C74.922 82.9075 75.317 83.3625 75.587 83.9475C75.857 84.5275 75.992 85.2075 75.992 85.9875V86.5425H70.6295C70.6245 86.9825 70.6945 87.3725 70.8395 87.7125C70.9845 88.0525 71.1995 88.32 71.4845 88.515C71.7695 88.705 72.122 88.8 72.542 88.8C72.972 88.8 73.3445 88.705 73.6595 88.515C73.9795 88.32 74.192 88.025 74.297 87.63H75.962C75.872 88.17 75.657 88.6275 75.317 89.0025C74.982 89.3775 74.572 89.6625 74.087 89.8575C73.607 90.0525 73.1045 90.15 72.5795 90.15ZM70.622 85.41H74.267C74.267 85.035 74.1995 84.6975 74.0645 84.3975C73.9345 84.0925 73.737 83.8525 73.472 83.6775C73.207 83.4975 72.872 83.4075 72.467 83.4075C72.067 83.4075 71.7295 83.505 71.4545 83.7C71.1795 83.895 70.972 84.1475 70.832 84.4575C70.692 84.7625 70.622 85.08 70.622 85.41Z" fill="white"/>
</g>
<rect x="1" y="1" width="156" height="108" rx="15" stroke="white" stroke-opacity="0.2" stroke-width="2"/>
<defs>
<radialGradient id="paint0_radial_311_2208" cx="0" cy="0" r="1" gradientUnits="userSpaceOnUse" gradientTransform="translate(124 34) rotate(90) scale(72)">
<stop stop-color="white"/>
<stop offset="1" stop-color="white" stop-opacity="0"/>
</radialGradient>
<linearGradient id="paint1_linear_311_2208" x1="79" y1="55" x2="79" y2="110" gradientUnits="userSpaceOnUse">
<stop stop-opacity="0"/>
<stop offset="1" stop-opacity="0.6"/>
</linearGradient>
<clipPath id="clip0_311_2208">
<rect width="158" height="110" rx="16" fill="white"/>
</clipPath>
</defs>
</svg>
