<svg width="158" height="110" viewBox="0 0 158 110" fill="none" xmlns="http://www.w3.org/2000/svg">
<g clip-path="url(#clip0_311_2212)">
<rect width="158" height="110" rx="16" fill="#1F1E28"/>
<circle cx="124" cy="34" r="72" fill="url(#paint0_radial_311_2212)" fill-opacity="0.28"/>
<circle cx="123" cy="33" r="59.5" stroke="#ACEF95" stroke-opacity="0.06"/>
<path d="M124.032 50.5455C118.086 50.5455 112.657 47.4432 109.684 42.2727C106.711 37.1669 106.711 30.8977 109.684 25.7273C112.657 20.6214 118.086 17.4545 124.032 17.4545C129.914 17.4545 135.343 20.6214 138.316 25.7273C141.289 30.8977 141.289 37.1669 138.316 42.2727C135.343 47.4432 129.914 50.5455 124.032 50.5455ZM118.086 38.5241C117.699 38.0717 117.052 38.0717 116.6 38.3949C116.147 38.7827 116.147 39.429 116.471 39.8814C117.957 41.5618 120.413 43.3068 124.032 43.3068C127.587 43.3068 130.043 41.5618 131.53 39.8814C131.853 39.429 131.853 38.7827 131.4 38.3949C130.948 38.0717 130.302 38.0717 129.914 38.5241C128.815 39.8814 126.811 41.2386 124.032 41.2386C121.189 41.2386 119.25 39.8814 118.086 38.5241ZM121.124 32.5781C121.447 33.0305 122.093 33.1598 122.546 32.772C122.998 32.4489 123.128 31.8026 122.74 31.3501C120.801 28.7003 116.858 28.7003 114.919 31.3501C114.532 31.8026 114.661 32.4489 115.113 32.772C115.566 33.1598 116.212 33.0305 116.535 32.5781C117.699 31.0916 119.961 31.0916 121.124 32.5781ZM126.876 32.5781C128.039 31.0916 130.302 31.0916 131.465 32.5781C131.788 33.0305 132.434 33.1598 132.887 32.772C133.339 32.4489 133.468 31.8026 133.081 31.3501C131.142 28.7003 127.199 28.7003 125.26 31.3501C124.873 31.8026 125.002 32.4489 125.454 32.772C125.907 33.1598 126.553 33.0305 126.876 32.5781Z" fill="#ACEF95"/>
<circle opacity="0.2" cx="123.618" cy="33.6185" r="29.1907" stroke="#ACEF95"/>
<circle opacity="0.1" cx="123" cy="33" r="43.4175" stroke="#ACEF95"/>
<rect width="158" height="110" fill="url(#paint1_linear_311_2212)"/>
<path d="M17.3125 90V79.155H21.715C22.545 79.155 23.2275 79.285 23.7625 79.545C24.3025 79.8 24.7025 80.1625 24.9625 80.6325C25.2225 81.0975 25.3525 81.6425 25.3525 82.2675C25.3525 82.8475 25.2575 83.335 25.0675 83.73C24.8775 84.12 24.63 84.44 24.325 84.69C24.025 84.935 23.7025 85.135 23.3575 85.29L25.4275 90H23.5225L21.655 85.5975H19.135V90H17.3125ZM19.135 84.15H21.3025C21.9925 84.15 22.53 83.99 22.915 83.67C23.305 83.35 23.5 82.905 23.5 82.335C23.5 81.775 23.32 81.3425 22.96 81.0375C22.6 80.7325 22.125 80.58 21.535 80.58H19.135V84.15ZM30.0967 90.15C29.3517 90.15 28.6942 89.9925 28.1242 89.6775C27.5592 89.3575 27.1167 88.9025 26.7967 88.3125C26.4817 87.7225 26.3242 87.02 26.3242 86.205C26.3242 85.41 26.4667 84.705 26.7517 84.09C27.0417 83.47 27.4592 82.9825 28.0042 82.6275C28.5542 82.2725 29.2167 82.095 29.9917 82.095C30.7567 82.095 31.3992 82.2575 31.9192 82.5825C32.4392 82.9075 32.8342 83.3625 33.1042 83.9475C33.3742 84.5275 33.5092 85.2075 33.5092 85.9875V86.5425H28.1467C28.1417 86.9825 28.2117 87.3725 28.3567 87.7125C28.5017 88.0525 28.7167 88.32 29.0017 88.515C29.2867 88.705 29.6392 88.8 30.0592 88.8C30.4892 88.8 30.8617 88.705 31.1767 88.515C31.4967 88.32 31.7092 88.025 31.8142 87.63H33.4792C33.3892 88.17 33.1742 88.6275 32.8342 89.0025C32.4992 89.3775 32.0892 89.6625 31.6042 89.8575C31.1242 90.0525 30.6217 90.15 30.0967 90.15ZM28.1392 85.41H31.7842C31.7842 85.035 31.7167 84.6975 31.5817 84.3975C31.4517 84.0925 31.2542 83.8525 30.9892 83.6775C30.7242 83.4975 30.3892 83.4075 29.9842 83.4075C29.5842 83.4075 29.2467 83.505 28.9717 83.7C28.6967 83.895 28.4892 84.1475 28.3492 84.4575C28.2092 84.7625 28.1392 85.08 28.1392 85.41ZM37.0882 90.1125C36.5882 90.1125 36.1882 90.05 35.8882 89.925C35.5882 89.8 35.3632 89.6325 35.2132 89.4225C35.0632 89.2125 34.9657 88.9775 34.9207 88.7175C34.8757 88.4525 34.8532 88.1825 34.8532 87.9075V78.855H36.6382V87.6975C36.6382 88.0325 36.7057 88.2925 36.8407 88.4775C36.9807 88.6625 37.2057 88.77 37.5157 88.8L37.9057 88.815V89.9625C37.7707 90.0025 37.6332 90.0375 37.4932 90.0675C37.3532 90.0975 37.2182 90.1125 37.0882 90.1125ZM41.3832 90.15C40.8882 90.15 40.4432 90.06 40.0482 89.88C39.6582 89.695 39.3507 89.4325 39.1257 89.0925C38.9057 88.7475 38.7957 88.33 38.7957 87.84C38.7957 86.985 39.1032 86.34 39.7182 85.905C40.3382 85.47 41.3232 85.2425 42.6732 85.2225L43.8357 85.1925V84.6675C43.8357 84.2575 43.7132 83.9375 43.4682 83.7075C43.2282 83.4725 42.8532 83.3575 42.3432 83.3625C41.9632 83.3675 41.6182 83.4575 41.3082 83.6325C40.9982 83.8025 40.7932 84.09 40.6932 84.495H39.1407C39.1707 83.965 39.3232 83.5225 39.5982 83.1675C39.8782 82.8075 40.2607 82.54 40.7457 82.365C41.2307 82.185 41.7907 82.095 42.4257 82.095C43.1657 82.095 43.7682 82.1925 44.2332 82.3875C44.6982 82.5825 45.0407 82.865 45.2607 83.235C45.4807 83.6 45.5907 84.0425 45.5907 84.5625V90H44.0532L43.9032 88.605C43.6282 89.19 43.2757 89.595 42.8457 89.82C42.4207 90.04 41.9332 90.15 41.3832 90.15ZM41.9757 88.9125C42.2007 88.9125 42.4232 88.8725 42.6432 88.7925C42.8632 88.7075 43.0607 88.595 43.2357 88.455C43.4157 88.31 43.5582 88.15 43.6632 87.975C43.7732 87.8 43.8307 87.6175 43.8357 87.4275V86.205L42.8832 86.22C42.4132 86.225 42.0007 86.275 41.6457 86.37C41.2957 86.465 41.0232 86.6175 40.8282 86.8275C40.6332 87.0325 40.5357 87.3075 40.5357 87.6525C40.5357 88.0475 40.6732 88.3575 40.9482 88.5825C41.2232 88.8025 41.5657 88.9125 41.9757 88.9125ZM46.3127 90L49.2902 85.965L46.5602 82.245H48.4952L50.2877 84.6675L52.0802 82.245H54.0227L51.2702 85.965L54.2552 90H52.3202L50.2802 87.24L48.2477 90H46.3127Z" fill="white"/>
</g>
<rect x="1" y="1" width="156" height="108" rx="15" stroke="white" stroke-opacity="0.2" stroke-width="2"/>
<defs>
<radialGradient id="paint0_radial_311_2212" cx="0" cy="0" r="1" gradientUnits="userSpaceOnUse" gradientTransform="translate(124 34) rotate(90) scale(72)">
<stop stop-color="#ACEF95"/>
<stop offset="1" stop-color="#ACEF95" stop-opacity="0"/>
</radialGradient>
<linearGradient id="paint1_linear_311_2212" x1="79" y1="55" x2="79" y2="110" gradientUnits="userSpaceOnUse">
<stop stop-opacity="0"/>
<stop offset="1" stop-opacity="0.6"/>
</linearGradient>
<clipPath id="clip0_311_2212">
<rect width="158" height="110" rx="16" fill="white"/>
</clipPath>
</defs>
</svg>
