<svg width="158" height="110" viewBox="0 0 158 110" fill="none" xmlns="http://www.w3.org/2000/svg">
<g clip-path="url(#clip0_311_2210)">
<rect width="158" height="110" rx="16" fill="#1F1E28"/>
<circle cx="124" cy="34" r="72" fill="url(#paint0_radial_311_2210)" fill-opacity="0.28"/>
<circle cx="123" cy="33" r="59.5" stroke="#EFD395" stroke-opacity="0.06"/>
<path d="M124.032 50.5455C118.086 50.5455 112.657 47.4432 109.684 42.2727C106.711 37.1669 106.711 30.8977 109.684 25.7273C112.657 20.6214 118.086 17.4545 124.032 17.4545C129.914 17.4545 135.343 20.6214 138.316 25.7273C141.289 30.8977 141.289 37.1669 138.316 42.2727C135.343 47.4432 129.914 50.5455 124.032 50.5455ZM120.93 42.2727C120.348 42.2727 119.896 42.7898 119.896 43.3068C119.896 43.8885 120.348 44.3409 120.93 44.3409H127.135C127.652 44.3409 128.169 43.8885 128.169 43.3068C128.169 42.7898 127.652 42.2727 127.135 42.2727H120.93ZM132.499 34.9695C131.336 36.456 129.074 36.456 127.91 34.9695C127.587 34.517 126.941 34.3878 126.488 34.7756C126.036 35.0987 125.907 35.745 126.294 36.1974C128.233 38.8473 132.176 38.8473 134.115 36.1974C134.503 35.745 134.373 35.0987 133.921 34.7756C133.468 34.3878 132.822 34.517 132.499 34.9695ZM115.501 34.9695C115.178 34.517 114.532 34.3878 114.079 34.7756C113.627 35.0987 113.498 35.745 113.885 36.1974C115.824 38.8473 119.767 38.8473 121.706 36.1974C122.093 35.745 121.964 35.0987 121.512 34.7756C121.059 34.3878 120.413 34.517 120.09 34.9695C118.927 36.456 116.664 36.456 115.501 34.9695ZM111.688 31.4148C111.946 31.8672 112.593 32.1257 113.11 31.8672L114.596 31.0916C115.76 30.5099 116.858 29.6697 117.699 28.6357L118.603 27.4723C118.991 27.0199 118.927 26.3736 118.474 25.9858C118.022 25.6626 117.375 25.7273 116.988 26.1797L116.083 27.343C115.436 28.1186 114.596 28.8295 113.627 29.282L112.14 29.9929C111.688 30.2514 111.429 30.8977 111.688 31.4148ZM135.86 29.9929L134.373 29.282C133.404 28.8295 132.628 28.1186 131.917 27.343L131.012 26.1797C130.689 25.7273 129.978 25.6626 129.591 25.9858C129.138 26.3736 129.074 27.0199 129.397 27.4723L130.302 28.6357C131.206 29.6697 132.24 30.5099 133.468 31.0916L134.89 31.8672C135.407 32.1257 136.054 31.9318 136.312 31.4148C136.571 30.8977 136.377 30.2514 135.86 29.9929Z" fill="#EFD395"/>
<circle opacity="0.2" cx="123.618" cy="33.6185" r="29.1907" stroke="#EFD395"/>
<circle opacity="0.1" cx="123" cy="33" r="43.4175" stroke="#EFD395"/>
<rect width="158" height="110" fill="url(#paint1_linear_311_2210)"/>
<path d="M21.205 90.15C20.665 90.15 20.1475 90.085 19.6525 89.955C19.1575 89.82 18.705 89.6225 18.295 89.3625C17.89 89.0975 17.555 88.77 17.29 88.38C17.025 87.985 16.8625 87.525 16.8025 87H18.6925C18.7725 87.365 18.93 87.6725 19.165 87.9225C19.405 88.1725 19.7075 88.3625 20.0725 88.4925C20.4375 88.6225 20.845 88.6875 21.295 88.6875C21.695 88.6875 22.0675 88.6275 22.4125 88.5075C22.7575 88.3875 23.0375 88.21 23.2525 87.975C23.4675 87.735 23.575 87.44 23.575 87.09C23.575 86.695 23.435 86.3875 23.155 86.1675C22.88 85.9425 22.485 85.765 21.97 85.635L19.8475 85.1325C19.2975 85.0075 18.8175 84.825 18.4075 84.585C18.0025 84.345 17.6875 84.03 17.4625 83.64C17.2375 83.245 17.125 82.7625 17.125 82.1925C17.125 81.5425 17.3025 80.98 17.6575 80.505C18.0175 80.03 18.505 79.665 19.12 79.41C19.735 79.15 20.4275 79.02 21.1975 79.02C22.0775 79.02 22.82 79.1675 23.425 79.4625C24.03 79.7525 24.49 80.1425 24.805 80.6325C25.12 81.1225 25.28 81.66 25.285 82.245H23.44C23.4 81.81 23.2725 81.4675 23.0575 81.2175C22.8425 80.9625 22.57 80.7775 22.24 80.6625C21.91 80.5475 21.545 80.49 21.145 80.49C20.435 80.49 19.9075 80.6425 19.5625 80.9475C19.2175 81.2525 19.045 81.61 19.045 82.02C19.045 82.405 19.1725 82.71 19.4275 82.935C19.6825 83.16 20.0725 83.335 20.5975 83.46L22.615 83.9325C23.29 84.0725 23.8325 84.2875 24.2425 84.5775C24.6525 84.8675 24.95 85.2125 25.135 85.6125C25.325 86.0075 25.42 86.445 25.42 86.925C25.42 87.555 25.24 88.1125 24.88 88.5975C24.525 89.0825 24.0325 89.4625 23.4025 89.7375C22.7725 90.0125 22.04 90.15 21.205 90.15ZM29.7084 90.06C29.0934 90.06 28.6159 89.98 28.2759 89.82C27.9409 89.655 27.7084 89.4225 27.5784 89.1225C27.4484 88.8225 27.3834 88.465 27.3834 88.05V83.535H26.1234V82.245H27.4359L27.8934 79.9425H29.2059V82.2375H30.9384V83.535H29.2059L29.2134 87.9825C29.2134 88.2125 29.2384 88.3825 29.2884 88.4925C29.3434 88.5975 29.4284 88.6675 29.5434 88.7025C29.6634 88.7325 29.8209 88.7475 30.0159 88.7475H30.9759V89.9025C30.8709 89.9425 30.7159 89.9775 30.5109 90.0075C30.3109 90.0425 30.0434 90.06 29.7084 90.06ZM32.2604 90V82.245H34.0079V83.925C34.1329 83.54 34.3104 83.2125 34.5404 82.9425C34.7754 82.6675 35.0504 82.4575 35.3654 82.3125C35.6804 82.1675 36.0229 82.095 36.3929 82.095C36.4829 82.095 36.5704 82.1 36.6554 82.11C36.7404 82.12 36.8029 82.1375 36.8429 82.1625V83.91C36.7879 83.885 36.7154 83.8675 36.6254 83.8575C36.5404 83.8475 36.4654 83.8425 36.4004 83.8425C36.0254 83.8125 35.6929 83.8275 35.4029 83.8875C35.1179 83.9475 34.8754 84.05 34.6754 84.195C34.4804 84.335 34.3329 84.515 34.2329 84.735C34.1329 84.95 34.0829 85.2025 34.0829 85.4925V90H32.2604ZM41.2645 90.15C40.5195 90.15 39.862 89.9925 39.292 89.6775C38.727 89.3575 38.2845 88.9025 37.9645 88.3125C37.6495 87.7225 37.492 87.02 37.492 86.205C37.492 85.41 37.6345 84.705 37.9195 84.09C38.2095 83.47 38.627 82.9825 39.172 82.6275C39.722 82.2725 40.3845 82.095 41.1595 82.095C41.9245 82.095 42.567 82.2575 43.087 82.5825C43.607 82.9075 44.002 83.3625 44.272 83.9475C44.542 84.5275 44.677 85.2075 44.677 85.9875V86.5425H39.3145C39.3095 86.9825 39.3795 87.3725 39.5245 87.7125C39.6695 88.0525 39.8845 88.32 40.1695 88.515C40.4545 88.705 40.807 88.8 41.227 88.8C41.657 88.8 42.0295 88.705 42.3445 88.515C42.6645 88.32 42.877 88.025 42.982 87.63H44.647C44.557 88.17 44.342 88.6275 44.002 89.0025C43.667 89.3775 43.257 89.6625 42.772 89.8575C42.292 90.0525 41.7895 90.15 41.2645 90.15ZM39.307 85.41H42.952C42.952 85.035 42.8845 84.6975 42.7495 84.3975C42.6195 84.0925 42.422 83.8525 42.157 83.6775C41.892 83.4975 41.557 83.4075 41.152 83.4075C40.752 83.4075 40.4145 83.505 40.1395 83.7C39.8645 83.895 39.657 84.1475 39.517 84.4575C39.377 84.7625 39.307 85.08 39.307 85.41ZM48.9616 90.15C48.4216 90.15 47.9091 90.065 47.4241 89.895C46.9441 89.72 46.5391 89.4475 46.2091 89.0775C45.8841 88.7075 45.6791 88.23 45.5941 87.645H47.1991C47.2691 87.93 47.3916 88.1625 47.5666 88.3425C47.7466 88.5225 47.9566 88.655 48.1966 88.74C48.4416 88.82 48.6941 88.86 48.9541 88.86C49.4191 88.86 49.7941 88.78 50.0791 88.62C50.3641 88.46 50.5066 88.2125 50.5066 87.8775C50.5066 87.6325 50.4266 87.4375 50.2666 87.2925C50.1116 87.1475 49.8566 87.0375 49.5016 86.9625L48.0316 86.625C47.3716 86.48 46.8441 86.24 46.4491 85.905C46.0541 85.57 45.8541 85.0975 45.8491 84.4875C45.8441 84.0275 45.9591 83.6175 46.1941 83.2575C46.4291 82.8975 46.7791 82.615 47.2441 82.41C47.7091 82.2 48.2816 82.095 48.9616 82.095C49.8666 82.095 50.5916 82.2975 51.1366 82.7025C51.6866 83.1025 51.9691 83.675 51.9841 84.42H50.4316C50.3766 84.085 50.2191 83.825 49.9591 83.64C49.6991 83.45 49.3616 83.355 48.9466 83.355C48.5166 83.355 48.1641 83.4375 47.8891 83.6025C47.6141 83.7675 47.4766 84.02 47.4766 84.36C47.4766 84.595 47.5791 84.78 47.7841 84.915C47.9941 85.05 48.3116 85.165 48.7366 85.26L50.1316 85.5975C50.5316 85.6975 50.8591 85.8325 51.1141 86.0025C51.3691 86.1725 51.5666 86.36 51.7066 86.565C51.8516 86.765 51.9516 86.9725 52.0066 87.1875C52.0666 87.3975 52.0966 87.5925 52.0966 87.7725C52.0966 88.2725 51.9666 88.7 51.7066 89.055C51.4516 89.405 51.0891 89.675 50.6191 89.865C50.1541 90.055 49.6016 90.15 48.9616 90.15ZM56.2814 90.15C55.7414 90.15 55.2289 90.065 54.7439 89.895C54.2639 89.72 53.8589 89.4475 53.5289 89.0775C53.2039 88.7075 52.9989 88.23 52.9139 87.645H54.5189C54.5889 87.93 54.7114 88.1625 54.8864 88.3425C55.0664 88.5225 55.2764 88.655 55.5164 88.74C55.7614 88.82 56.0139 88.86 56.2739 88.86C56.7389 88.86 57.1139 88.78 57.3989 88.62C57.6839 88.46 57.8264 88.2125 57.8264 87.8775C57.8264 87.6325 57.7464 87.4375 57.5864 87.2925C57.4314 87.1475 57.1764 87.0375 56.8214 86.9625L55.3514 86.625C54.6914 86.48 54.1639 86.24 53.7689 85.905C53.3739 85.57 53.1739 85.0975 53.1689 84.4875C53.1639 84.0275 53.2789 83.6175 53.5139 83.2575C53.7489 82.8975 54.0989 82.615 54.5639 82.41C55.0289 82.2 55.6014 82.095 56.2814 82.095C57.1864 82.095 57.9114 82.2975 58.4564 82.7025C59.0064 83.1025 59.2889 83.675 59.3039 84.42H57.7514C57.6964 84.085 57.5389 83.825 57.2789 83.64C57.0189 83.45 56.6814 83.355 56.2664 83.355C55.8364 83.355 55.4839 83.4375 55.2089 83.6025C54.9339 83.7675 54.7964 84.02 54.7964 84.36C54.7964 84.595 54.8989 84.78 55.1039 84.915C55.3139 85.05 55.6314 85.165 56.0564 85.26L57.4514 85.5975C57.8514 85.6975 58.1789 85.8325 58.4339 86.0025C58.6889 86.1725 58.8864 86.36 59.0264 86.565C59.1714 86.765 59.2714 86.9725 59.3264 87.1875C59.3864 87.3975 59.4164 87.5925 59.4164 87.7725C59.4164 88.2725 59.2864 88.7 59.0264 89.055C58.7714 89.405 58.4089 89.675 57.9389 89.865C57.4739 90.055 56.9214 90.15 56.2814 90.15ZM63.9803 90V79.155H68.3828C69.2128 79.155 69.8953 79.285 70.4303 79.545C70.9703 79.8 71.3703 80.1625 71.6303 80.6325C71.8903 81.0975 72.0203 81.6425 72.0203 82.2675C72.0203 82.8475 71.9253 83.335 71.7353 83.73C71.5453 84.12 71.2978 84.44 70.9928 84.69C70.6928 84.935 70.3703 85.135 70.0253 85.29L72.0953 90H70.1903L68.3228 85.5975H65.8028V90H63.9803ZM65.8028 84.15H67.9703C68.6603 84.15 69.1978 83.99 69.5828 83.67C69.9728 83.35 70.1678 82.905 70.1678 82.335C70.1678 81.775 69.9878 81.3425 69.6278 81.0375C69.2678 80.7325 68.7928 80.58 68.2028 80.58H65.8028V84.15ZM76.7645 90.15C76.0195 90.15 75.362 89.9925 74.792 89.6775C74.227 89.3575 73.7845 88.9025 73.4645 88.3125C73.1495 87.7225 72.992 87.02 72.992 86.205C72.992 85.41 73.1345 84.705 73.4195 84.09C73.7095 83.47 74.127 82.9825 74.672 82.6275C75.222 82.2725 75.8845 82.095 76.6595 82.095C77.4245 82.095 78.067 82.2575 78.587 82.5825C79.107 82.9075 79.502 83.3625 79.772 83.9475C80.042 84.5275 80.177 85.2075 80.177 85.9875V86.5425H74.8145C74.8095 86.9825 74.8795 87.3725 75.0245 87.7125C75.1695 88.0525 75.3845 88.32 75.6695 88.515C75.9545 88.705 76.307 88.8 76.727 88.8C77.157 88.8 77.5295 88.705 77.8445 88.515C78.1645 88.32 78.377 88.025 78.482 87.63H80.147C80.057 88.17 79.842 88.6275 79.502 89.0025C79.167 89.3775 78.757 89.6625 78.272 89.8575C77.792 90.0525 77.2895 90.15 76.7645 90.15ZM74.807 85.41H78.452C78.452 85.035 78.3845 84.6975 78.2495 84.3975C78.1195 84.0925 77.922 83.8525 77.657 83.6775C77.392 83.4975 77.057 83.4075 76.652 83.4075C76.252 83.4075 75.9145 83.505 75.6395 83.7C75.3645 83.895 75.157 84.1475 75.017 84.4575C74.877 84.7625 74.807 85.08 74.807 85.41ZM83.7559 90.1125C83.2559 90.1125 82.8559 90.05 82.5559 89.925C82.2559 89.8 82.0309 89.6325 81.8809 89.4225C81.7309 89.2125 81.6334 88.9775 81.5884 88.7175C81.5434 88.4525 81.5209 88.1825 81.5209 87.9075V78.855H83.3059V87.6975C83.3059 88.0325 83.3734 88.2925 83.5084 88.4775C83.6484 88.6625 83.8734 88.77 84.1834 88.8L84.5734 88.815V89.9625C84.4384 90.0025 84.3009 90.0375 84.1609 90.0675C84.0209 90.0975 83.8859 90.1125 83.7559 90.1125ZM85.8384 90V82.245H87.5859V90H85.8384ZM85.8084 80.8875V79.1625H87.6159V80.8875H85.8084ZM92.7031 90.15C91.9581 90.15 91.3006 89.9925 90.7306 89.6775C90.1656 89.3575 89.7231 88.9025 89.4031 88.3125C89.0881 87.7225 88.9306 87.02 88.9306 86.205C88.9306 85.41 89.0731 84.705 89.3581 84.09C89.6481 83.47 90.0656 82.9825 90.6106 82.6275C91.1606 82.2725 91.8231 82.095 92.5981 82.095C93.3631 82.095 94.0056 82.2575 94.5256 82.5825C95.0456 82.9075 95.4406 83.3625 95.7106 83.9475C95.9806 84.5275 96.1156 85.2075 96.1156 85.9875V86.5425H90.7531C90.7481 86.9825 90.8181 87.3725 90.9631 87.7125C91.1081 88.0525 91.3231 88.32 91.6081 88.515C91.8931 88.705 92.2456 88.8 92.6656 88.8C93.0956 88.8 93.4681 88.705 93.7831 88.515C94.1031 88.32 94.3156 88.025 94.4206 87.63H96.0856C95.9956 88.17 95.7806 88.6275 95.4406 89.0025C95.1056 89.3775 94.6956 89.6625 94.2106 89.8575C93.7306 90.0525 93.2281 90.15 92.7031 90.15ZM90.7456 85.41H94.3906C94.3906 85.035 94.3231 84.6975 94.1881 84.3975C94.0581 84.0925 93.8606 83.8525 93.5956 83.6775C93.3306 83.4975 92.9956 83.4075 92.5906 83.4075C92.1906 83.4075 91.8531 83.505 91.5781 83.7C91.3031 83.895 91.0956 84.1475 90.9556 84.4575C90.8156 84.7625 90.7456 85.08 90.7456 85.41ZM98.1409 90V83.535H96.6109V82.245H98.1409V81.09C98.1409 80.47 98.3109 79.9925 98.6509 79.6575C98.9959 79.3225 99.4934 79.155 100.143 79.155H101.778L101.786 80.4H100.706C100.411 80.4 100.208 80.4775 100.098 80.6325C99.9884 80.7825 99.9334 81.02 99.9334 81.345V82.245H101.711V83.535H99.9634V90H98.1409Z" fill="white"/>
</g>
<rect x="1" y="1" width="156" height="108" rx="15" stroke="white" stroke-opacity="0.2" stroke-width="2"/>
<defs>
<radialGradient id="paint0_radial_311_2210" cx="0" cy="0" r="1" gradientUnits="userSpaceOnUse" gradientTransform="translate(124 34) rotate(90) scale(72)">
<stop stop-color="#EFD395"/>
<stop offset="1" stop-color="#EFD395" stop-opacity="0"/>
</radialGradient>
<linearGradient id="paint1_linear_311_2210" x1="79" y1="55" x2="79" y2="110" gradientUnits="userSpaceOnUse">
<stop stop-opacity="0"/>
<stop offset="1" stop-opacity="0.6"/>
</linearGradient>
<clipPath id="clip0_311_2210">
<rect width="158" height="110" rx="16" fill="white"/>
</clipPath>
</defs>
</svg>
