<?xml version="1.0" encoding="UTF-8"?>
<svg width="24px" height="24px" viewBox="0 0 24 24" version="1.1" xmlns="http://www.w3.org/2000/svg">
    <g stroke="none" stroke-width="1" fill="none" fill-rule="evenodd">
        <path d="M17.5,12.5c0,4.5-2,6.5-4,6.5c-1,0-2-0.5-3-1c-1-0.5-2-1-3-1c-2,0-4,2-4,6.5C3,25.5,4,27,5.5,27c1,0,2-0.5,3-1c1-0.5,2-1,3.5-1c1.5,0,2.5,0.5,3.5,1c1,0.5,2,1,3,1C21,27,22,25.5,22,24c0-4.5-2-6.5-4-6.5C17,17.5,17.5,18.5,17.5,12.5z M15,8c0,2-1.5,3.5-3.5,3.5C9.5,11.5,8,10,8,8c0-2,1.5-3.5,3.5-3.5C13.5,4.5,15,6,15,8z" fill="#FFFFFF"/>
    </g>
</svg> 