<svg width="72" height="72" viewBox="0 0 72 72" fill="none" xmlns="http://www.w3.org/2000/svg">
<g clip-path="url(#clip0_116_522)">
<circle cx="36" cy="36" r="36" fill="url(#paint0_radial_116_522)" fill-opacity="0.4"/>
<g clip-path="url(#clip1_116_522)">
<path d="M20.9523 30.1333V41.9063C19.1505 40.5739 18 38.4117 18 36.038C18 33.6642 19.1505 31.4657 20.9523 30.1333Z" fill="#9BBEF9"/>
<path d="M28.2953 28.6555V43.3445C24.2256 43.3445 20.9492 40.0318 20.9492 36.0016C20.9492 31.9715 24.2619 28.6555 28.2953 28.6555Z" fill="#9BBEF9"/>
<path d="M43.3447 36.0016C43.3447 40.0582 40.0552 43.3445 36.0019 43.3445C31.9486 43.3445 28.6558 40.0549 28.6558 36.0016C28.6558 31.9484 31.9453 28.6555 36.0019 28.6555C40.0585 28.6555 43.3447 31.9451 43.3447 36.0016Z" fill="#9BBEF9"/>
<path d="M28.295 20.9524V28.2985H20.9521C20.9521 24.2287 24.2648 20.9524 28.2983 20.9524H28.295Z" fill="#9BBEF9"/>
<path d="M43.3447 28.2951H28.6558C28.6558 24.2253 31.9685 20.949 36.0019 20.949C40.0353 20.949 43.3447 24.2617 43.3447 28.2951Z" fill="#9BBEF9"/>
<path d="M43.7051 20.9524V28.2952H51.0479C51.0479 24.2254 47.7352 20.9524 43.7051 20.9524Z" fill="#9BBEF9"/>
<path d="M28.295 51.0511V43.7083H20.9521C20.9521 47.7747 24.2648 51.0511 28.295 51.0511Z" fill="#9BBEF9"/>
<path d="M43.7051 51.0511C47.7385 51.0511 51.0479 47.7747 51.0479 43.7083H43.7051V51.0511Z" fill="#9BBEF9"/>
<path d="M43.3447 43.7048H28.6558C28.6558 47.7383 31.9685 51.0477 35.9986 51.0477C40.0287 51.0477 43.3414 47.7713 43.3414 43.7048H43.3447Z" fill="#9BBEF9"/>
<path d="M51.0479 30.1333V41.9063C52.8464 40.5739 54.0002 38.4151 54.0002 36.038C54.0002 33.6609 52.8497 31.4657 51.0479 30.1333Z" fill="#9BBEF9"/>
<path d="M36.0016 18C33.6245 18 31.4657 19.1505 30.1333 20.9523H41.8699C40.5376 19.1505 38.4117 18 36.0016 18Z" fill="#9BBEF9"/>
<path d="M36.0016 53.9999C38.4151 53.9999 40.5376 52.8494 41.8699 51.0476H30.1333C31.4657 52.8461 33.6245 53.9999 36.0016 53.9999Z" fill="#9BBEF9"/>
<path d="M43.7051 28.6555V43.3445C47.7385 43.3445 51.0479 40.0318 51.0479 36.0016C51.0479 31.9715 47.7716 28.6588 43.7051 28.6588V28.6555Z" fill="#9BBEF9"/>
</g>
</g>
<rect x="1" y="1" width="70" height="70" rx="35" stroke="#9BBEF8" stroke-opacity="0.2" stroke-width="2"/>
<defs>
<radialGradient id="paint0_radial_116_522" cx="0" cy="0" r="1" gradientUnits="userSpaceOnUse" gradientTransform="translate(36 36) rotate(90) scale(36)">
<stop stop-color="#9BBEF8"/>
<stop offset="1" stop-color="#9BBEF8" stop-opacity="0"/>
</radialGradient>
<clipPath id="clip0_116_522">
<rect width="72" height="72" rx="36" fill="white"/>
</clipPath>
<clipPath id="clip1_116_522">
<rect width="36" height="36" fill="white" transform="translate(18 18)"/>
</clipPath>
</defs>
</svg>
