<svg width="72" height="72" viewBox="0 0 72 72" fill="none" xmlns="http://www.w3.org/2000/svg">
<g clip-path="url(#clip0_372_1481)">
<circle cx="36" cy="36" r="36" fill="url(#paint0_radial_372_1481)" fill-opacity="0.5"/>
<g clip-path="url(#clip1_372_1481)">
<path d="M50.0177 31.8791C48.2038 31.8791 46.6744 33.0792 46.1925 34.7191C46.0619 35.1654 45.6503 35.4762 45.1818 35.4762H41.139C39.6263 35.4762 38.87 33.6677 39.9376 32.6131L42.7354 29.8492C43.07 29.5186 43.5821 29.4525 43.9937 29.6773C45.5064 30.5005 47.4475 30.279 48.7292 29.0128C50.3356 27.4258 50.2854 24.8206 48.5719 23.2965C47.0291 21.9245 44.6128 21.9774 43.1269 23.4089C41.8117 24.6785 41.5774 26.6158 42.4174 28.1267C42.645 28.5334 42.5747 29.0392 42.2434 29.3665L39.2415 32.3321C38.1705 33.39 36.3433 32.6395 36.3433 31.1452V26.715C36.3433 26.2489 36.6545 25.8455 37.1063 25.7166C38.793 25.2339 40.0179 23.6866 39.9811 21.8584C39.9409 19.8185 38.2743 18.1126 36.2127 18.0068C33.9136 17.8878 32.0093 19.6929 32.0093 21.9377C32.0093 23.7296 33.2242 25.2405 34.8841 25.7166C35.3359 25.8455 35.6505 26.2522 35.6505 26.715V31.1452C35.6505 32.6395 33.8199 33.3867 32.7523 32.3321L29.7503 29.3665C29.419 29.0392 29.3487 28.5334 29.5763 28.1267C30.4197 26.6158 30.1854 24.6785 28.8668 23.4089C27.3809 21.9774 24.968 21.9245 23.4218 23.2965C21.7117 24.8173 21.6581 27.4225 23.2645 29.0128C24.5463 30.279 26.4873 30.5005 28 29.6773C28.4117 29.4525 28.9237 29.5186 29.2584 29.8492L32.0562 32.6131C33.1271 33.671 32.3674 35.4762 30.8547 35.4762H26.8153C26.3434 35.4762 25.9351 35.1654 25.8046 34.7191C25.3227 33.0792 23.7933 31.8791 21.9794 31.8791C19.7137 31.8791 17.8831 33.757 18.0069 36.0283C18.114 38.0648 19.8409 39.7113 21.9058 39.7509C23.7565 39.7873 25.3261 38.5773 25.8147 36.911C25.9452 36.4647 26.3568 36.1572 26.8254 36.1572H31.2362C32.7489 36.1572 33.5053 37.9656 32.4377 39.0203L29.2684 42.1512C28.9337 42.4818 28.4217 42.5479 28.0101 42.3231C26.4974 41.4999 24.5563 41.7214 23.2745 42.9876C21.6682 44.5745 21.7184 47.1797 23.4318 48.7038C24.9747 50.0758 27.3876 50.0229 28.8769 48.5914C30.1921 47.3219 30.4297 45.3845 29.5863 43.8736C29.3588 43.467 29.4291 42.9611 29.7604 42.6338L32.7623 39.6683C33.8333 38.6103 35.6605 39.3608 35.6605 40.8552V45.2853C35.6605 45.7515 35.3459 46.1548 34.8941 46.2838C33.2342 46.7598 32.0194 48.2707 32.0194 50.0626C32.0194 52.3075 33.9203 54.1126 36.2228 53.9936C38.2843 53.8845 39.9509 52.1818 39.9911 50.142C40.0279 48.3137 38.7997 46.7631 37.1163 46.2838C36.6645 46.1548 36.3533 45.7482 36.3533 45.2853V40.8552C36.3533 39.3608 38.1839 38.6136 39.2515 39.6683L42.2534 42.6338C42.5848 42.9611 42.655 43.467 42.4275 43.8736C41.5841 45.3845 41.8184 47.3219 43.137 48.5914C44.6229 50.0229 47.0392 50.0758 48.582 48.7038C50.2921 47.183 50.3457 44.5778 48.7393 42.9876C47.4575 41.7214 45.5164 41.4999 44.0037 42.3231C43.5921 42.5479 43.0801 42.4818 42.7454 42.1512L39.5761 39.0203C38.5052 37.9623 39.2649 36.1572 40.7776 36.1572H45.1952C45.6637 36.1572 46.0753 36.4647 46.2058 36.911C46.6945 38.5773 48.2607 39.7873 50.1147 39.7509C52.1796 39.7113 53.9032 38.0648 54.0136 36.0283C54.1341 33.757 52.3068 31.8791 50.0344 31.8791H50.0177Z" fill="#C1C1C1"/>
</g>
</g>
<rect x="1" y="1" width="70" height="70" rx="35" stroke="#C1C1C1" stroke-opacity="0.2" stroke-width="2"/>
<defs>
<radialGradient id="paint0_radial_372_1481" cx="0" cy="0" r="1" gradientUnits="userSpaceOnUse" gradientTransform="translate(36 36) rotate(90) scale(36)">
<stop stop-color="#C1C1C1"/>
<stop offset="1" stop-color="#C1C1C1" stop-opacity="0"/>
</radialGradient>
<clipPath id="clip0_372_1481">
<rect width="72" height="72" rx="36" fill="white"/>
</clipPath>
<clipPath id="clip1_372_1481">
<rect width="36" height="36" fill="white" transform="translate(18 18)"/>
</clipPath>
</defs>
</svg>
