<svg width="72" height="72" viewBox="0 0 72 72" fill="none" xmlns="http://www.w3.org/2000/svg">
<g clip-path="url(#clip0_116_433)">
<circle cx="36" cy="36" r="36" fill="url(#paint0_radial_116_433)" fill-opacity="0.4"/>
<g clip-path="url(#clip1_116_433)">
<path d="M34.7756 31.8601L35.2184 24.3415C35.3967 21.3311 32.3536 19.1647 29.5512 20.3118C29.5037 20.3326 29.4591 20.3505 29.4116 20.3683C26.6419 21.5303 26.0713 25.1944 28.315 27.1826L33.9703 32.19C34.2704 32.4545 34.7459 32.2583 34.7697 31.8601H34.7756Z" fill="#ACEF95"/>
<path d="M40.0835 34.7102L47.6377 35.153C50.66 35.3313 52.8383 32.3001 51.6852 29.5125C51.6644 29.465 51.6466 29.4204 51.6288 29.3729C50.4609 26.6151 46.7789 26.0475 44.7818 28.2822L39.7536 33.9137C39.4861 34.2139 39.6823 34.6864 40.0864 34.7102H40.0835Z" fill="#ACEF95"/>
<path d="M37.2245 31.8601C37.2483 32.2583 37.7238 32.4545 38.0239 32.19L43.6792 27.1826C45.9259 25.1944 45.3523 21.5303 42.5826 20.3683C42.5351 20.3475 42.4905 20.3297 42.443 20.3118C39.6406 19.1647 36.6005 21.3311 36.7758 24.3415L37.2186 31.8601H37.2245Z" fill="#ACEF95"/>
<path d="M31.9171 34.7102C32.3183 34.6864 32.5144 34.2139 32.2499 33.9137L27.2217 28.2822C25.2247 26.0475 21.5427 26.6151 20.3748 29.3729C20.354 29.4204 20.3361 29.465 20.3183 29.5125C19.1653 32.3001 21.3406 35.3283 24.3658 35.153L31.9201 34.7102H31.9171Z" fill="#ACEF95"/>
<path d="M38.0241 39.6609C37.7239 39.3965 37.2485 39.5926 37.2247 39.9908L36.7819 47.5094C36.6036 50.5198 39.6467 52.6862 42.4491 51.5391C42.4966 51.5183 42.5412 51.5005 42.5887 51.4826C45.3584 50.3207 45.929 46.6565 43.6853 44.6684L38.03 39.6609H38.0241Z" fill="#ACEF95"/>
<path d="M40.0835 37.1442C39.6823 37.1679 39.4862 37.6404 39.7507 37.9406L44.7789 43.5721C46.776 45.8069 50.458 45.2363 51.6259 42.4815C51.6467 42.4339 51.6645 42.3893 51.6823 42.3418C52.8354 39.5543 50.6601 36.526 47.6348 36.7014L40.0806 37.1442H40.0835Z" fill="#ACEF95"/>
<path d="M34.7758 39.9908C34.752 39.5926 34.2766 39.3965 33.9764 39.6609L28.3211 44.6684C26.0745 46.6565 26.648 50.3207 29.4177 51.4826C29.4653 51.5034 29.5098 51.5213 29.5574 51.5391C32.3598 52.6862 35.3999 50.5198 35.2246 47.5094L34.7818 39.9908H34.7758Z" fill="#ACEF95"/>
<path d="M32.2468 37.9403C32.5143 37.6402 32.3181 37.1677 31.914 37.1439L24.3597 36.7011C21.3374 36.5228 19.1591 39.554 20.3122 42.3415C20.333 42.3891 20.3508 42.4336 20.3686 42.4812C21.5366 45.239 25.2186 45.8066 27.2156 43.5718L32.2438 37.9403H32.2468Z" fill="#ACEF95"/>
</g>
</g>
<rect x="1" y="1" width="70" height="70" rx="35" stroke="#ACEF95" stroke-opacity="0.2" stroke-width="2"/>
<defs>
<radialGradient id="paint0_radial_116_433" cx="0" cy="0" r="1" gradientUnits="userSpaceOnUse" gradientTransform="translate(36 36) rotate(90) scale(36)">
<stop stop-color="#ACEF95"/>
<stop offset="1" stop-color="#ACEF95" stop-opacity="0"/>
</radialGradient>
<clipPath id="clip0_116_433">
<rect width="72" height="72" rx="36" fill="white"/>
</clipPath>
<clipPath id="clip1_116_433">
<rect width="32" height="31.8544" fill="white" transform="translate(20 20)"/>
</clipPath>
</defs>
</svg>
