<svg width="32" height="32" viewBox="0 0 32 32" fill="none" xmlns="http://www.w3.org/2000/svg">
<path d="M16 0C24.8366 0 32 7.16344 32 16C32 24.8366 24.8366 32 16 32C7.16344 32 0 24.8366 0 16C0 7.16344 7.16344 0 16 0ZM20.7812 10.2988C19.1992 10.0426 17.5469 10.523 16.4219 11.5479L16 11.9316L15.5781 11.5479C14.418 10.523 12.8007 10.0426 11.1836 10.2988C8.75785 10.6511 7.00005 12.5725 7 14.8145V14.9746C7 16.3198 7.59766 17.6013 8.65234 18.498L15.0156 23.9102C15.2617 24.1344 15.6133 24.2305 16 24.2305C16.3515 24.2304 16.7032 24.1343 16.9492 23.9102L23.3125 18.498C24.3672 17.6013 25 16.3198 25 14.9746V14.8145C24.9999 12.5726 23.2069 10.6512 20.7812 10.2988Z" fill="#EBEAF0"/>
</svg>
