<svg width="31" height="32" viewBox="0 0 31 32" fill="none" xmlns="http://www.w3.org/2000/svg">
<path d="M26.8226 27.9412L22.8725 30.2226C21.5451 30.9894 20.1194 31.3729 18.6944 31.373C17.2689 31.3731 15.844 30.9896 14.5162 30.2226L5.53081 25.0361C5.13225 24.8059 4.84694 24.4327 4.72725 23.9855C4.6075 23.5382 4.66838 23.0725 4.89856 22.6741C5.42413 21.7629 6.24994 21.1049 7.22375 20.8214C8.21631 20.5324 9.26563 20.6637 10.1783 21.1913L12.72 22.6584L4.8715 9.06393C4.52438 8.46199 4.43294 7.7588 4.61375 7.08368C4.79481 6.4078 5.22631 5.84468 5.82863 5.49787C6.42925 5.15043 7.13275 5.05849 7.80856 5.23949C8.48406 5.42037 9.04763 5.85124 9.39556 6.45274L13.0254 12.7418C13.2264 12.1296 13.6384 11.6209 14.1978 11.2989C15.1443 10.7524 16.2954 10.8683 17.11 11.5019C17.2627 10.8103 17.6934 10.1825 18.353 9.80168C19.4105 9.19293 20.7209 9.4083 21.5341 10.2462C21.7187 9.6613 22.1084 9.17468 22.6406 8.86799C23.2021 8.54274 23.8596 8.45618 24.4912 8.62499C25.1238 8.79399 25.6516 9.19774 25.9772 9.7618L29.8825 16.5252C32.1861 20.5174 30.8133 25.6385 26.8226 27.9412V27.9412ZM4.50431 3.20549C7.01775 1.75487 10.2429 2.6188 11.6941 5.13168C11.9858 5.63552 12.1915 6.1844 12.3029 6.7558C12.402 7.26399 12.8941 7.59568 13.4026 7.49649C13.9108 7.39737 14.2424 6.90505 14.1433 6.3968C13.9923 5.62164 13.7132 4.87704 13.3176 4.19355C11.3498 0.785928 6.97563 -0.385822 3.56681 1.58162C0.15925 3.54949 -1.01256 7.92362 0.954126 11.331C1.34754 12.0162 1.85312 12.6306 2.44981 13.1485C2.62006 13.2967 2.83822 13.3782 3.06394 13.378C3.32613 13.378 3.587 13.2686 3.77238 13.055C4.11175 12.6639 4.06988 12.0718 3.67881 11.7324C3.2399 11.3513 2.86805 10.8992 2.57875 10.395C1.12813 7.88162 1.99206 4.65643 4.50431 3.20555V3.20549Z" fill="#AAA7BC"/>
</svg>
