<svg width="72" height="72" viewBox="0 0 72 72" fill="none" xmlns="http://www.w3.org/2000/svg">
<g clip-path="url(#clip0_324_1512)">
<circle cx="36" cy="36" r="36" fill="url(#paint0_radial_324_1512)" fill-opacity="0.5"/>
<g clip-path="url(#clip1_324_1512)">
<path d="M22.7181 36.7883C22.8455 37.1761 22.9326 37.4279 23.0164 37.6864C23.4788 39.1356 24.4808 40.0235 25.9351 40.2072C26.8332 40.3195 27.7748 40.1834 28.6863 40.0677C29.9061 39.9146 31.1091 39.6289 32.3288 39.4826C34.8656 39.1798 36.97 40.0269 38.5886 42.051C39.3693 43.0274 39.7379 44.1057 39.1549 45.31C38.5852 46.4905 37.5564 46.8374 36.3266 46.7694C35.9077 46.7456 35.4386 46.7456 35.0767 46.9157C34.7483 47.0722 34.3328 47.4702 34.3194 47.7798C34.3026 48.1438 34.6209 48.5758 34.9024 48.8786C35.1035 49.0929 35.4755 49.1405 35.8709 49.3038C35.7033 49.5589 35.5927 49.7767 35.4386 49.957C34.3897 51.1952 33.3274 52.4165 32.2853 53.6616C31.9803 54.0256 31.7257 54.0936 31.2632 53.8759C29.0884 52.8486 27.2722 51.4368 26.1362 49.2358C25.2314 47.4838 26.096 45.0549 27.8988 44.2656C29.2627 43.6703 30.6835 43.4492 32.1646 43.541C32.9655 43.5921 33.7698 43.5921 34.574 43.6159C35.1605 43.6329 35.6329 43.4288 35.7636 42.796C35.8876 42.1905 35.5961 41.7959 35.0633 41.5101C33.6558 40.7515 32.2518 40.993 30.9348 41.6462C29.3833 42.415 27.9524 43.4458 26.3808 44.167C24.1725 45.1841 21.8804 45.6468 19.5983 44.2758C19.5112 44.2248 19.4207 44.1806 19.3336 44.1296C17.6815 43.1124 17.6145 42.6736 18.8645 41.2278C19.9569 39.9623 21.0359 38.6832 22.125 37.4143C22.2825 37.2306 22.4567 37.0639 22.7181 36.7883Z" fill="#CC9BF9"/>
<path d="M36.8125 49.1575C38.4042 48.8718 39.5436 48.0757 39.9692 46.6231C40.2372 45.7012 40.2607 44.6603 40.1803 43.6907C40.0395 41.9456 39.5871 40.2174 39.5369 38.4723C39.4665 35.9583 41.2392 33.4545 43.4274 32.5972C45.2671 31.876 47.0097 33.213 46.8656 35.2099C46.8287 35.7372 46.8555 36.2781 46.946 36.7985C47.0365 37.3224 47.3816 37.6592 47.9546 37.632C48.521 37.6048 48.8896 37.3326 49.0203 36.7441C49.2113 35.8732 49.3152 35.8426 49.9854 36.4243C51.0912 37.3871 52.1803 38.3702 53.2928 39.3227C53.6916 39.6629 53.8256 39.9691 53.5709 40.493C52.5824 42.5511 51.2721 44.3167 49.3386 45.555C47.2911 46.8681 44.7377 45.8985 43.987 43.5683C43.5112 42.0884 43.7324 40.5916 43.7257 39.0948C43.7257 38.4587 43.7491 37.8225 43.7324 37.1864C43.719 36.6829 43.5011 36.3019 42.9717 36.1896C42.4556 36.0807 42.0166 36.2066 41.7217 36.6693C41.2157 37.4551 40.9577 38.3498 41.3029 39.2173C41.8792 40.6699 42.5763 42.0782 43.2599 43.4866C44.235 45.5039 45.2336 47.494 44.9689 49.8651C44.7846 51.532 43.8128 52.7091 42.7472 53.8351C42.6131 53.9746 42.1306 53.995 41.9764 53.8623C40.3177 52.4573 38.6891 51.015 37.0605 49.576C36.9767 49.5011 36.9398 49.3718 36.8192 49.1541L36.8125 49.1575Z" fill="#CC9BF9"/>
<path d="M36.1357 22.7318C36.6451 22.1331 37.064 21.6398 37.4828 21.1465C38.2033 20.296 38.9372 19.4558 39.6375 18.5849C39.9358 18.2141 40.234 18.1189 40.6831 18.2821C42.9919 19.119 44.7009 20.6941 45.8537 22.8338C47.0198 24.994 45.6794 27.6611 43.2533 28.0013C41.7487 28.2122 40.2072 28.1442 38.6825 28.2088C38.1597 28.2326 37.5968 28.1714 37.1276 28.3517C36.7724 28.4877 36.3401 28.9266 36.2999 29.2702C36.2631 29.6002 36.6049 30.1308 36.9232 30.3214C38.0358 30.9881 39.2421 30.9575 40.3882 30.3928C41.5376 29.8281 42.6367 29.1579 43.776 28.5694C44.6473 28.1203 45.5621 27.7563 46.4301 27.3039C48.702 26.1234 51.8688 26.712 53.7085 28.6885C53.9631 28.9606 54.1374 29.1953 53.8526 29.5321C52.348 31.3045 50.84 33.0769 49.2784 34.9139C49.1678 34.6894 49.0841 34.5703 49.0438 34.4376C48.511 32.6414 46.9796 31.4542 45.1332 31.6107C43.5649 31.7467 42.0067 32.0563 40.4518 32.3285C37.8012 32.7911 35.499 32.1652 33.7263 30.0594C33.274 29.5219 32.9321 28.8007 32.778 28.1067C32.4094 26.4296 33.6895 25.028 35.3884 25.1131C35.814 25.1335 36.2396 25.1777 36.6618 25.1641C37.2416 25.1471 37.7006 24.9022 37.8012 24.266C37.9051 23.6027 37.5197 23.2183 36.9701 22.9767C36.7657 22.8883 36.5445 22.8474 36.129 22.725L36.1357 22.7318Z" fill="#CC9BF9"/>
<path d="M35.194 22.6265C34.7919 22.7898 34.5976 22.8816 34.3965 22.9531C32.5802 23.5824 31.5883 25.0248 31.7492 27.0761C31.8598 28.4913 32.1044 29.9031 32.406 31.2945C33.0326 34.1894 31.91 37.2307 29.5074 38.884C28.6093 39.5032 27.6375 39.6358 26.659 39.1256C25.7107 38.6323 25.3487 37.7716 25.3655 36.717C25.3722 36.3088 25.342 35.9006 25.332 35.4924C25.3219 34.829 24.96 34.4106 24.3568 34.3187C23.7704 34.2303 23.3716 34.6011 23.1438 35.1454C22.8187 35.921 22.7014 35.9584 22.0647 35.4073C20.9388 34.431 19.8363 33.424 18.7037 32.4545C18.2647 32.0803 18.2178 31.7299 18.4657 31.1992C19.4107 29.1547 20.8349 27.5422 22.6847 26.3209C24.8226 24.9091 27.5303 26.059 28.1301 28.5798C28.4752 30.0324 28.559 31.4918 28.368 32.9784C28.3043 33.4785 28.3043 33.9989 28.368 34.499C28.4484 35.1216 28.7601 35.6318 29.4437 35.6897C30.0938 35.7475 30.4222 35.3257 30.6534 34.7507C31.1996 33.3968 30.8612 32.1415 30.2714 30.9236C29.7386 29.8282 29.1354 28.7669 28.5959 27.6749C27.6442 25.7562 26.7126 23.8274 27.1315 21.5651C27.4029 20.1125 28.2072 19.0001 29.313 18.0986C29.4571 17.9829 29.8391 17.9557 29.9631 18.0646C31.6721 19.5206 33.3543 21.0072 35.1974 22.6231L35.194 22.6265Z" fill="#CC9BF9"/>
</g>
</g>
<rect x="1" y="1" width="70" height="70" rx="35" stroke="#CC9BF9" stroke-opacity="0.2" stroke-width="2"/>
<defs>
<radialGradient id="paint0_radial_324_1512" cx="0" cy="0" r="1" gradientUnits="userSpaceOnUse" gradientTransform="translate(36 36) rotate(90) scale(36)">
<stop stop-color="#CC9BF9"/>
<stop offset="1" stop-color="#CC9BF9" stop-opacity="0"/>
</radialGradient>
<clipPath id="clip0_324_1512">
<rect width="72" height="72" rx="36" fill="white"/>
</clipPath>
<clipPath id="clip1_324_1512">
<rect width="36" height="36" fill="white" transform="translate(18 18)"/>
</clipPath>
</defs>
</svg>
