<svg width="72" height="72" viewBox="0 0 72 72" fill="none" xmlns="http://www.w3.org/2000/svg">
<g clip-path="url(#clip0_387_1020)">
<circle cx="36" cy="36" r="36" fill="url(#paint0_radial_387_1020)" fill-opacity="0.4"/>
<g clip-path="url(#clip1_387_1020)">
<path fill-rule="evenodd" clip-rule="evenodd" d="M50.0193 38.8402L45.7842 36.3937L50.0193 33.9472C52.3071 32.595 53.1402 29.6824 51.788 27.3912C50.4359 25.1001 47.5232 24.3728 45.2321 25.6225L40.9672 28.0855V23.2289C40.9672 20.5245 38.7819 18.4417 36.18 18.4417C33.5781 18.4417 31.3928 20.5212 31.3928 23.2289V28.0855L27.1279 25.6225C26.3774 25.2158 25.5641 25.0175 24.7575 25.0175C23.1011 25.0175 21.4844 25.8506 20.572 27.3912C19.2198 29.679 20.0529 32.595 22.3407 33.9472L26.5758 36.3937L22.3407 38.8402C20.8001 39.7494 19.9207 41.3628 19.9207 43.0224C19.9207 43.8291 20.1289 44.6457 20.572 45.3962C21.9241 47.684 24.8368 48.5171 27.1279 47.165L31.3928 44.7019V49.661C31.3928 50.9603 31.9383 52.1571 32.8111 53.03C33.6839 53.9028 34.8807 54.4483 36.18 54.4483C38.7819 54.4483 40.9672 52.2629 40.9672 49.661V44.7019L45.2321 47.165C47.5199 48.5171 50.4359 47.684 51.788 45.3962C53.1402 43.1084 52.3071 40.1924 50.0193 38.8402ZM42.2136 28.0161C44.2931 26.8722 46.895 27.5995 48.0389 29.5766C49.1828 31.5536 48.4555 34.1555 46.4785 35.2994L45.1825 36.0466L40.9639 33.6133V28.7401L42.2136 28.0161ZM31.9151 26.978C31.9151 24.5844 33.8922 22.7131 36.18 22.7131C38.4678 22.7131 40.4449 24.5844 40.4449 26.978V28.3864L36.18 30.8494L31.9151 28.3864V26.978ZM25.8782 35.2994C23.9012 34.1555 23.1738 31.5536 24.3178 29.5766C25.0914 28.2376 26.5361 27.4706 28.0007 27.4706C28.6983 27.4706 29.4025 27.6458 30.0406 28.0161L31.3928 28.7963V33.6133L27.1709 36.0499L25.8782 35.2994ZM30.0406 44.768C28.0635 45.9119 25.4617 45.2871 24.3178 43.2076C23.9475 42.5695 23.7722 41.8653 23.7722 41.1677C23.7722 39.7031 24.5393 38.2617 25.8782 37.4847L27.1709 36.7342L31.3928 39.1708V43.9878L30.0406 44.768ZM40.4449 45.9152C40.4449 48.2031 38.4678 50.0776 36.18 50.0776C35.0361 50.0776 33.9682 49.6082 33.188 48.8544C32.4078 48.1006 31.9118 47.0592 31.9118 45.9152V44.4011L36.1767 41.938L40.4415 44.4011V45.9152H40.4449ZM48.0422 43.2076C46.8983 45.2871 44.2964 45.9119 42.2169 44.768L40.9672 44.044V39.1708L45.1858 36.7375L46.4818 37.4847C48.4588 38.6286 49.1861 41.2305 48.0422 43.2076Z" fill="white"/>
</g>
</g>
<rect x="1" y="1" width="70" height="70" rx="35" stroke="white" stroke-opacity="0.2" stroke-width="2"/>
<defs>
<radialGradient id="paint0_radial_387_1020" cx="0" cy="0" r="1" gradientUnits="userSpaceOnUse" gradientTransform="translate(36 36) rotate(90) scale(36)">
<stop stop-color="white"/>
<stop offset="1" stop-color="white" stop-opacity="0"/>
</radialGradient>
<clipPath id="clip0_387_1020">
<rect width="72" height="72" rx="36" fill="white"/>
</clipPath>
<clipPath id="clip1_387_1020">
<rect width="32.5187" height="36" fill="white" transform="translate(19.9207 18.4451)"/>
</clipPath>
</defs>
</svg>
